<?xml version="1.0" encoding="UTF-8"?>
<svg version="1.1" xmlns="http://www.w3.org/2000/svg" width="612" height="612">
<path d="M0 0 C201.96 0 403.92 0 612 0 C612 201.96 612 403.92 612 612 C410.04 612 208.08 612 0 612 C0 410.04 0 208.08 0 0 Z " fill="#FEFEFE" transform="translate(0,0)"/>
<path d="M0 0 C25.86590938 2.24920951 51.5112892 26.6218066 68.4375 44.66015625 C70 47 70 47 69.953125 49.04296875 C68.79956088 51.41155736 67.43819512 53.22132855 65.75 55.25 C65.03199219 56.12269531 64.31398438 56.99539063 63.57421875 57.89453125 C63.16864746 58.38260254 62.76307617 58.87067383 62.34521484 59.37353516 C60.85010264 61.18123706 59.37122714 63.00144338 57.89453125 64.82421875 C57.34982178 65.49654541 56.8051123 66.16887207 56.24389648 66.86157227 C55.68903564 67.54662842 55.1341748 68.23168457 54.5625 68.9375 C51.45699039 72.77085639 48.35026701 76.60043612 45.1640625 80.3671875 C43.93816406 81.82511719 43.93816406 81.82511719 42.6875 83.3125 C41.96949219 84.15425781 41.25148438 84.99601562 40.51171875 85.86328125 C38.71121912 87.97193768 38.71121912 87.97193768 39 91 C39.81452637 91.27880005 39.81452637 91.27880005 40.64550781 91.56323242 C49.87709378 94.73256129 59.05946586 97.90196145 68.03125 101.7578125 C73.4445457 104.02284938 78.96177426 106.01798008 84.46313477 108.05712891 C94.3776176 111.74202283 104.27215035 115.4790986 114.16015625 119.234375 C117.12290594 120.35839275 120.08573217 121.48220851 123.04858398 122.60595703 C125.07432155 123.37490043 127.09970698 124.14477208 129.12475586 124.91552734 C132.09389246 126.04528942 135.06438956 127.1714075 138.03515625 128.296875 C138.93315445 128.63958435 139.83115265 128.9822937 140.75636292 129.33538818 C145.46278915 131.11443679 150.13831797 132.70135129 155 134 C155 134.66 155 135.32 155 136 C155.8353125 136.14695312 155.8353125 136.14695312 156.6875 136.296875 C160.72565707 137.08813551 164.6300718 138.04613987 168.4375 139.625 C169.07558594 139.88539063 169.71367188 140.14578125 170.37109375 140.4140625 C175.92069833 145.81727463 174.94105523 158.17190264 175.62109375 165.546875 C175.76741082 167.08267656 175.91431951 168.61842185 176.06178284 170.15411377 C176.44892703 174.20015677 176.82906688 178.24682567 177.20739746 182.29370117 C177.80540778 188.67734235 178.41402825 195.05998694 179.02199745 201.44268608 C179.17142883 203.01250088 179.32058718 204.58234169 179.46947289 206.15220833 C180.57042464 217.75417288 181.75827835 229.34343636 183.0194397 240.929245 C183.858233 248.63511658 184.62518738 256.34151242 185.3125 264.0625 C186.30624916 274.99517161 187.393843 285.91643983 188.5234375 296.8359375 C188.66064043 298.16582313 188.79780151 299.49571309 188.93492126 300.8256073 C189.76569433 308.87992375 189.76569433 308.87992375 190.60708618 316.93313599 C191.0063248 320.73497308 191.40004572 324.53734951 191.79296875 328.33984375 C191.91469452 329.48242645 192.03642029 330.62500916 192.16183472 331.80221558 C192.2723819 332.88060699 192.38292908 333.95899841 192.49682617 335.07006836 C192.64313728 336.46750526 192.64313728 336.46750526 192.79240417 337.89317322 C193.0615001 341.920395 193 345.96379784 193 350 C20.08 350 -152.84 350 -331 350 C-331 344.64650623 -330.99383612 339.8160021 -330.44921875 334.578125 C-330.32933594 333.40330566 -330.20945312 332.22848633 -330.0859375 331.01806641 C-329.88871094 329.15287354 -329.88871094 329.15287354 -329.6875 327.25 C-329.55035694 325.91980279 -329.41364676 324.58956089 -329.27734375 323.25927734 C-328.85724391 319.17225097 -328.42901403 315.08609859 -328 311 C-327.49891016 306.20844654 -326.99887613 301.41678445 -326.5 296.625 C-326.37431641 295.41948486 -326.24863281 294.21396973 -326.11914062 292.97192383 C-325.25572297 284.63164135 -324.45648604 276.28696478 -323.6875 267.9375 C-322.32568167 253.19014238 -320.8683012 238.45257293 -319.39614868 223.71585083 C-319.13682483 221.11975556 -318.87783946 218.52362646 -318.61923218 215.92745972 C-317.13800691 201.06678675 -315.61567499 186.21161269 -314.00195312 171.36468506 C-313.20652772 164.02911044 -312.42178608 156.69133718 -311.82421875 149.33648682 C-311.41956119 145.28879542 -310.7627397 142.98281694 -308 140 C-305.59451294 138.75779724 -305.59451294 138.75779724 -302.70361328 137.70092773 C-301.61621857 137.29627792 -300.52882385 136.89162811 -299.40847778 136.47471619 C-298.22438324 136.04864578 -297.0402887 135.62257538 -295.8203125 135.18359375 C-293.92805273 134.48492092 -292.03579304 133.78624787 -290.14353752 133.08756351 C-287.47658586 132.10662461 -284.80536302 131.13759688 -282.13421631 130.16815186 C-278.87818152 128.98409425 -275.62662741 127.78789388 -272.375 126.59179688 C-271.08607904 126.11785028 -269.79714368 125.64394286 -268.50819397 125.17007446 C-267.55021251 124.81788282 -267.55021251 124.81788282 -266.57287788 124.4585762 C-264.62506385 123.74324808 -262.67661813 123.02966534 -260.72801208 122.3164978 C-248.12428099 117.70034347 -235.57669216 112.94106574 -223.03564453 108.15750122 C-219.06073924 106.64185679 -215.08333695 105.13284655 -211.10546875 103.625 C-207.6021658 102.29569861 -204.09887617 100.96636246 -200.59570312 99.63671875 C-198.36435232 98.79012902 -196.13246962 97.94493902 -193.89990234 97.1015625 C-192.09992206 96.41781852 -190.30276805 95.72652208 -188.51025391 95.0234375 C-185.51815411 93.85844436 -183.24273966 93 -180 93 C-180 92.01 -180 91.02 -180 90 C-180.66 90 -181.32 90 -182 90 C-182.97809716 88.61717298 -183.94678148 87.2262707 -184.85546875 85.796875 C-188.16727513 80.08863886 -188.16727513 80.08863886 -193 76 C-194.01230492 74.34077833 -195.00950113 72.67233064 -196 71 C-197.60351884 68.85291545 -199.22122279 66.73219243 -200.875 64.625 C-204.35445999 60.15077618 -207.75605066 55.64966072 -211 51 C-200.53509628 28.14381724 -173.54256064 11.75435974 -151.41015625 1.83984375 C-149 1 -149 1 -145 1 C-144.01 3.97 -143.02 6.94 -142 10 C-141.34 10 -140.68 10 -140 10 C-129.68869972 21.00614295 -127.90934945 32.49737615 -128.01904297 46.89990234 C-127.69520883 99.61844013 -111.59533313 153.75392901 -97 204 C-95.29113572 202.29113572 -95.50382279 199.95966871 -95.203125 197.62109375 C-95.05125732 196.48317383 -94.89938965 195.34525391 -94.74291992 194.17285156 C-94.49892456 192.32385254 -94.49892456 192.32385254 -94.25 190.4375 C-92.80671729 179.77077082 -90.98814201 169.28971753 -88.48730469 158.81811523 C-86.50924695 150.14232954 -87.52506085 143.77517127 -90.4765625 135.39453125 C-91.73842844 129.6219654 -88.65432779 124.93762648 -86 120 C-85.40421143 118.88637085 -85.40421143 118.88637085 -84.79638672 117.75024414 C-81.06643211 110.9085716 -77.11615905 103.90721175 -72 98 C-69 98 -69 98 -67.4921875 99.1875 C-61.40141191 106.01387651 -57.24746438 113.95429172 -53 122 C-52.41605469 123.08796875 -51.83210938 124.1759375 -51.23046875 125.296875 C-48.7448194 130.75741263 -51.21793407 135.67084713 -53.125 141 C-53.49882812 141.969375 -53.87265625 142.93875 -54.2578125 143.9375 C-55.65392762 149.69831186 -53.71754659 155.57118603 -52.44140625 161.26171875 C-52.13475276 162.64257527 -51.82811257 164.02343474 -51.52148438 165.40429688 C-51.04412819 167.53886199 -50.56571297 169.67318589 -50.08666992 171.80737305 C-48.13911689 180.50227449 -46.34151536 189.18627554 -45 198 C-43.6285882 195.39963257 -42.59262722 192.92749535 -41.81640625 190.09375 C-41.61257324 189.35624512 -41.40874023 188.61874023 -41.19873047 187.85888672 C-40.88379639 186.69123779 -40.88379639 186.69123779 -40.5625 185.5 C-40.34223145 184.69191895 -40.12196289 183.88383789 -39.89501953 183.05126953 C-39.25779598 180.70229778 -38.62779876 178.35150559 -38 176 C-37.56107422 174.37191406 -37.56107422 174.37191406 -37.11328125 172.7109375 C-35.31799132 165.81474443 -33.99220955 158.87141646 -32.74609375 151.859375 C-32.12752093 148.65963707 -31.37600638 145.53658569 -30.5690918 142.38134766 C-29.25863616 136.89778513 -28.23569242 131.35108148 -27.1875 125.8125 C-27.05816071 125.13013275 -26.92882141 124.4477655 -26.79556274 123.74472046 C-24.58448981 111.97941089 -22.78314095 100.17599198 -21.1875 88.3125 C-21.08263275 87.53903229 -20.9777655 86.76556458 -20.86972046 85.96865845 C-19.26095464 74.01584832 -17.96620372 62.15759634 -17.9296875 50.08203125 C-17.91448216 48.02025714 -17.89833976 45.95849262 -17.88183594 43.89672852 C-17.87726101 42.50186554 -17.88352954 41.10692677 -17.90039062 39.7121582 C-18.00223909 29.79003468 -16.60137599 23.61999407 -10 16 C-8.73294639 14.07360923 -7.47860291 12.13863842 -6.25 10.1875 C-5.69828125 9.31480469 -5.1465625 8.44210937 -4.578125 7.54296875 C-3.02680663 5.04319583 -1.50628947 2.52711818 0 0 Z " fill="#333848" transform="translate(375,262)"/>
<path d="M0 0 C1.24713069 0.67902629 2.48669397 1.37211536 3.71875 2.078125 C4.37020996 2.43793457 5.02166992 2.79774414 5.69287109 3.16845703 C9.13678942 5.08690442 12.51530372 7.08962489 15.84375 9.203125 C21.27856797 12.62504743 24.75528218 13.74168022 31.21875 13.328125 C34.77851164 12.02497458 34.77851164 12.02497458 38.21875 10.140625 C38.82960449 9.82399902 39.44045898 9.50737305 40.06982422 9.18115234 C44.41378402 6.88563928 48.27927075 4.23991401 52.21875 1.328125 C56.23299331 0.10221836 60.0913235 -0.62806214 64.21875 0.328125 C68.19185397 2.62864353 71.68195573 5.41172793 75.21875 8.328125 C75.88261719 8.85148437 76.54648437 9.37484375 77.23046875 9.9140625 C90.60059956 20.79043857 100.04194608 36.40160087 108.21875 51.328125 C108.72535156 52.1325 109.23195313 52.936875 109.75390625 53.765625 C111.57691507 56.9546751 112.88523696 60.26821434 114.15625 63.703125 C114.41422363 64.39704346 114.67219727 65.09096191 114.93798828 65.8059082 C121.61752181 84.18397759 121.61752181 84.18397759 121.21875 92.328125 C122.45238281 92.40160156 122.45238281 92.40160156 123.7109375 92.4765625 C138.16016803 93.44429387 154.00595314 94.96813726 164.21875 106.328125 C166.11270594 110.11603688 165.77957997 114.36522011 164.640625 118.3515625 C159.92549728 129.19635626 148.13981491 136.11134413 137.59521484 140.39355469 C121.1387661 146.72530583 121.1387661 146.72530583 116.00610352 147.78491211 C113.95253252 148.19098236 113.95253252 148.19098236 112.83984375 150.62109375 C112.44925781 151.57628906 112.05867187 152.53148437 111.65625 153.515625 C110.39023448 156.54862537 109.19671565 159.36566501 107.53125 162.203125 C106.17276787 165.43760627 105.74993838 168.11144712 105.28125 171.578125 C104.11319155 179.96516765 102.26961134 188.00080754 95.21875 193.328125 C87.99797059 197.64152788 81.17206469 197.99912286 72.90625 197.953125 C71.75962891 197.98535156 70.61300781 198.01757812 69.43164062 198.05078125 C58.54692127 198.06310125 50.36184847 194.45516603 42.34375 187.140625 C38.47701723 183.02125633 35.87774633 178.57734824 33.41015625 173.515625 C32.41181924 171.18650208 32.41181924 171.18650208 30.21875 170.328125 C28.51172265 170.25816486 26.80206997 170.24372346 25.09375 170.265625 C24.18367187 170.27464844 23.27359375 170.28367188 22.3359375 170.29296875 C21.28792969 170.31037109 21.28792969 170.31037109 20.21875 170.328125 C19.8784375 171.01777344 19.538125 171.70742187 19.1875 172.41796875 C13.67834775 183.09927723 6.99476497 192.01983612 -4.53955078 196.36791992 C-9.82722937 197.93415278 -15.05159996 197.69695422 -20.53125 197.703125 C-21.66046875 197.72761719 -22.7896875 197.75210938 -23.953125 197.77734375 C-32.25433177 197.80616738 -39.7636833 196.92802388 -46.1484375 191.20703125 C-50.93663298 183.85107291 -53.24036641 176.19853208 -55.45117188 167.77587891 C-58.02002508 156.76696997 -58.02002508 156.76696997 -64.52099609 148.02880859 C-68.63565401 146.15850954 -72.99358338 145.56103569 -77.42431641 144.83740234 C-81.63705654 143.9271293 -85.44467485 142.12534859 -89.34375 140.328125 C-90.06868652 140.00674561 -90.79362305 139.68536621 -91.54052734 139.35424805 C-96.46398866 137.11595021 -101.52141082 134.69420656 -105.78125 131.328125 C-105.78125 130.668125 -105.78125 130.008125 -105.78125 129.328125 C-106.37421875 129.07933594 -106.9671875 128.83054688 -107.578125 128.57421875 C-111.6817356 126.25320495 -113.83674565 122.53498537 -115.78125 118.328125 C-116.76159706 113.71662405 -116.80580664 109.59922555 -114.84375 105.25 C-108.69401327 96.83071757 -97.55935591 95.04736364 -87.90625 93.515625 C-82.82886627 92.73643507 -77.93301844 92.17075587 -72.78125 92.328125 C-72.71808594 91.63332031 -72.65492188 90.93851562 -72.58984375 90.22265625 C-69.83064411 67.30677714 -59.43506812 46.63109266 -45.78125 28.328125 C-45.12382812 27.44640625 -44.46640625 26.5646875 -43.7890625 25.65625 C-35.78501208 15.30563058 -26.57944066 6.6746946 -15.78125 -0.671875 C-15.17023438 -1.105 -14.55921875 -1.538125 -13.9296875 -1.984375 C-9.13655296 -3.51817805 -4.37025743 -2.14381325 0 0 Z " fill="#2D3341" transform="translate(273.78125,21.671875)"/>
<path d="M0 0 C3.60516587 5.27815134 2.4955589 12.31439045 1.39453125 18.28125 C0.86160383 20.72676464 0.32768286 23.1720629 -0.20703125 25.6171875 C-1.42423671 31.75651256 -1.8136607 38.00141896 -2.26513672 44.2355957 C-3.49243613 60.19193187 -3.49243613 60.19193187 -8 65 C-10.79495307 65.42616116 -13.14708357 65.23384561 -16 65 C-16.07347656 66.32451172 -16.07347656 66.32451172 -16.1484375 67.67578125 C-16.62031894 75.25029197 -17.43858896 82.57192807 -19 90 C-19.66 90 -20.32 90 -21 90 C-21.24105469 90.68320312 -21.48210937 91.36640625 -21.73046875 92.0703125 C-23.25074127 95.5786337 -25.22221709 98.68947795 -27.3125 101.875 C-27.69083984 102.46152344 -28.06917969 103.04804688 -28.45898438 103.65234375 C-28.83990234 104.23886719 -29.22082031 104.82539063 -29.61328125 105.4296875 C-29.99782471 106.03022949 -30.38236816 106.63077148 -30.77856445 107.24951172 C-32 109 -32 109 -33.38354492 110.47314453 C-38.22277598 115.8804254 -37.69996029 122.03986481 -37.68881226 128.99777222 C-37.68657269 132.6282178 -37.77339131 136.25708884 -37.84375 139.88671875 C-37.85532639 140.6024556 -37.86690277 141.31819244 -37.87882996 142.05561829 C-38.44115409 175.60583931 -44.24369839 212.05011503 -53.28979492 244.31787109 C-54.18392872 247.69461702 -54.85629197 251.09194608 -55.51269531 254.52148438 C-56.35209943 258.79083838 -57.36447067 263.01843314 -58.375 267.25 C-58.59051514 268.15516357 -58.80603027 269.06032715 -59.02807617 269.99291992 C-60.81106421 277.39327184 -62.80677051 284.70965618 -65 292 C-67.21614704 288.28233959 -67.85665953 284.31802204 -68.62109375 280.12109375 C-68.76652115 279.35378433 -68.91194855 278.58647491 -69.06178284 277.7959137 C-69.5260112 275.34413337 -69.98248619 272.89100585 -70.4375 270.4375 C-71.03503357 267.22683841 -71.63710649 264.0171033 -72.24609375 260.80859375 C-72.3922261 260.03752792 -72.53835846 259.2664621 -72.68891907 258.47203064 C-73.69783827 253.26453274 -74.93491077 248.17345312 -76.47509766 243.09375 C-78.04330692 236.83841854 -74.94163372 230.73649401 -72.7421875 224.96484375 C-71.18901422 218.76032524 -73.65898177 214.11536941 -76.625 208.75 C-76.98110352 208.09612305 -77.33720703 207.44224609 -77.70410156 206.76855469 C-83.44634906 196.1993565 -83.44634906 196.1993565 -92 188 C-96.66685574 194.48941479 -101.05030357 201.04935929 -105 208 C-105.58652344 208.97195313 -106.17304688 209.94390625 -106.77734375 210.9453125 C-109.59454786 215.94089893 -111.61251748 219.58643247 -110.5 225.375 C-109.74570479 228.00044742 -108.81875306 230.457887 -107.8125 233 C-105.70471483 240.7825914 -108.63195959 249.07999311 -110.34179688 256.74902344 C-112.25887334 265.64384597 -113.44095887 274.63574607 -114.60473633 283.65576172 C-114.75837646 284.80963379 -114.9120166 285.96350586 -115.0703125 287.15234375 C-115.20195801 288.18351318 -115.33360352 289.21468262 -115.46923828 290.27709961 C-115.97269763 292.85993405 -116.69356934 294.73287887 -118 297 C-123.36324973 280.19750805 -127.62784458 263.08108443 -132 246 C-132.29696777 244.84338867 -132.59393555 243.68677734 -132.89990234 242.49511719 C-141.74607626 207.54907475 -150.08732606 169.99113283 -150.03515625 133.796875 C-150.05991331 121.91249732 -151.66181268 114.58899307 -158.84765625 104.921875 C-161 102 -161 102 -161 100 C-161.66 100 -162.32 100 -163 100 C-163.18175781 99.36191406 -163.36351562 98.72382813 -163.55078125 98.06640625 C-163.80214844 97.24011719 -164.05351562 96.41382813 -164.3125 95.5625 C-164.55613281 94.73878906 -164.79976562 93.91507812 -165.05078125 93.06640625 C-165.36402344 92.38449219 -165.67726562 91.70257813 -166 91 C-167.485 90.505 -167.485 90.505 -169 90 C-169.06058594 89.24074219 -169.12117188 88.48148437 -169.18359375 87.69921875 C-169.30927734 86.20841797 -169.30927734 86.20841797 -169.4375 84.6875 C-169.51871094 83.70136719 -169.59992188 82.71523437 -169.68359375 81.69921875 C-169.91812559 78.90624401 -169.91812559 78.90624401 -171 76 C-171.03954234 73.66700175 -171.04401732 71.33291811 -171 69 C-171.67546875 69.020625 -172.3509375 69.04125 -173.046875 69.0625 C-175.86335306 68.99737912 -178.28375175 68.75712747 -181 68 C-187.96134009 59.25370091 -188.02908572 43.91508518 -189.4609375 33.1640625 C-189.95126413 30.28605835 -190.66678023 27.74928475 -191.625 25 C-193.60264367 19.0071404 -194.89900215 9.7980043 -192 4 C-189.93359375 3.3671875 -189.93359375 3.3671875 -187.4375 2.875 C-186.61121094 2.70742187 -185.78492188 2.53984375 -184.93359375 2.3671875 C-183.97646484 2.18542969 -183.97646484 2.18542969 -183 2 C-181.71858555 5.09990235 -180.44988313 8.20479924 -179.1875 11.3125 C-178.81439697 12.2307959 -178.44129395 13.1490918 -178.05688477 14.09521484 C-176.20167285 18.73468088 -174.54053027 23.23914157 -173.4375 28.125 C-172.00477198 33.83789035 -169.38880232 39.01288468 -165 43 C-158.06025252 46.60129403 -150.64346427 46.48570992 -143 46.4375 C-141.8759375 46.45748047 -140.751875 46.47746094 -139.59375 46.49804688 C-128.89592203 46.49179814 -120.88799467 43.23761033 -113 36 C-108.64770806 31.15518542 -105.77350114 25.85516906 -103 20 C-101.35034831 18.35034831 -99.4523645 18.75050502 -97.1875 18.6875 C-96.31480469 18.65011719 -95.44210937 18.61273438 -94.54296875 18.57421875 C-91.16207697 19.1402974 -90.13715875 20.36582759 -88 23 C-87.03701237 24.5555954 -86.12104966 26.14112004 -85.25 27.75 C-79.80984601 36.96163231 -73.24437154 42.67254428 -63 46 C-58.43223228 46.64485732 -53.98086805 46.65759884 -49.375 46.5625 C-47.63089844 46.57893555 -47.63089844 46.57893555 -45.8515625 46.59570312 C-38.58668138 46.53406669 -33.38389858 45.39552414 -27 42 C-26.01 41.67 -25.02 41.34 -24 41 C-22.86663939 38.71270721 -22.86663939 38.71270721 -22 36 C-21.65839844 35.16082031 -21.31679688 34.32164062 -20.96484375 33.45703125 C-18.81968996 27.93509544 -17.67350902 23.09890315 -17.265625 17.203125 C-16.88312296 14.0306081 -15.58225825 11.75430139 -14 9 C-13.00034165 6.62630926 -12.02319169 4.24518932 -11.0625 1.85546875 C-8.63458752 -2.38445195 -4.05871341 -0.95933226 0 0 Z " fill="#F2A877" transform="translate(396,172)"/>
<path d="M0 0 C3.60516587 5.27815134 2.4955589 12.31439045 1.39453125 18.28125 C0.86160383 20.72676464 0.32768286 23.1720629 -0.20703125 25.6171875 C-1.42423671 31.75651256 -1.8136607 38.00141896 -2.26513672 44.2355957 C-3.49243613 60.19193187 -3.49243613 60.19193187 -8 65 C-10.79495307 65.42616116 -13.14708357 65.23384561 -16 65 C-16.07347656 66.32451172 -16.07347656 66.32451172 -16.1484375 67.67578125 C-16.62031894 75.25029197 -17.43858896 82.57192807 -19 90 C-19.66 90 -20.32 90 -21 90 C-21.24105469 90.68320312 -21.48210937 91.36640625 -21.73046875 92.0703125 C-23.25074127 95.5786337 -25.22221709 98.68947795 -27.3125 101.875 C-27.69083984 102.46152344 -28.06917969 103.04804688 -28.45898438 103.65234375 C-28.83990234 104.23886719 -29.22082031 104.82539063 -29.61328125 105.4296875 C-29.99790527 106.03087402 -30.3825293 106.63206055 -30.77880859 107.25146484 C-32 109 -32 109 -33.38134766 110.45556641 C-38.71950557 116.37433255 -37.74828724 124.12139445 -37.75 131.625 C-37.7790332 134.40896121 -37.81992838 137.19273186 -37.859375 139.9765625 C-37.86715469 140.65376846 -37.87493439 141.33097443 -37.88294983 142.02870178 C-38.14170889 161.12868744 -38.14170889 161.12868744 -42 167 C-42.66 167 -43.32 167 -44 167 C-44 167.99 -44 168.98 -44 170 C-44.66 170 -45.32 170 -46 170 C-46 170.66 -46 171.32 -46 172 C-51.75 175 -51.75 175 -54 175 C-54.33 175.99 -54.66 176.98 -55 178 C-56.69897461 178.89135742 -56.69897461 178.89135742 -58.90234375 179.60546875 C-59.70631592 179.8669873 -60.51028809 180.12850586 -61.33862305 180.39794922 C-62.62506714 180.78877686 -62.62506714 180.78877686 -63.9375 181.1875 C-64.79964111 181.45578613 -65.66178223 181.72407227 -66.55004883 182.00048828 C-72.55343441 183.78266382 -77.71767206 184.6179339 -84 184 C-84 183.01 -84 182.02 -84 181 C-84.99 181 -85.98 181 -87 181 C-87 179.35 -87 177.7 -87 176 C-87.66 176 -88.32 176 -89 176 C-90.5859375 174.0234375 -90.5859375 174.0234375 -92.375 171.375 C-93.30119141 170.00408203 -93.30119141 170.00408203 -94.24609375 168.60546875 C-95.11427734 167.31576172 -95.11427734 167.31576172 -96 166 C-96.66708984 165.09701172 -96.66708984 165.09701172 -97.34765625 164.17578125 C-99.66095227 161.0167641 -100.46116569 158.91990834 -100 155 C-101.32 155 -102.64 155 -104 155 C-104 154.34 -104 153.68 -104 153 C-101.69 153 -99.38 153 -97 153 C-97 109.11 -97 65.22 -97 20 C-98.32 20.33 -99.64 20.66 -101 21 C-101 22.65 -101 24.3 -101 26 C-102.32 26.33 -103.64 26.66 -105 27 C-105 27.99 -105 28.98 -105 30 C-105.66 30 -106.32 30 -107 30 C-106.54917531 28.53932801 -106.08906463 27.08151968 -105.625 25.625 C-105.24214844 24.40683594 -105.24214844 24.40683594 -104.8515625 23.1640625 C-104 21 -104 21 -102 19 C-99.7578125 18.6640625 -99.7578125 18.6640625 -97.125 18.625 C-96.26132812 18.59664062 -95.39765625 18.56828125 -94.5078125 18.5390625 C-91.17264355 19.15206863 -90.12051579 20.39632871 -88 23 C-87.03701237 24.5555954 -86.12104966 26.14112004 -85.25 27.75 C-79.80984601 36.96163231 -73.24437154 42.67254428 -63 46 C-58.43223228 46.64485732 -53.98086805 46.65759884 -49.375 46.5625 C-47.63089844 46.57893555 -47.63089844 46.57893555 -45.8515625 46.59570312 C-38.58668138 46.53406669 -33.38389858 45.39552414 -27 42 C-26.01 41.67 -25.02 41.34 -24 41 C-22.86663939 38.71270721 -22.86663939 38.71270721 -22 36 C-21.48759766 34.74123047 -21.48759766 34.74123047 -20.96484375 33.45703125 C-18.81968996 27.93509544 -17.67350902 23.09890315 -17.265625 17.203125 C-16.88312296 14.0306081 -15.58225825 11.75430139 -14 9 C-13.00034165 6.62630926 -12.02319169 4.24518932 -11.0625 1.85546875 C-8.63458752 -2.38445195 -4.05871341 -0.95933226 0 0 Z " fill="#EF9461" transform="translate(396,172)"/>
<path d="M0 0 C7.15282583 5.02219686 10.8242372 11.68786461 14.98828125 19.18164062 C15.87924425 20.78296602 16.79696962 22.36933871 17.71875 23.953125 C19.7473455 27.62713684 20.98410031 30.14141654 21.0625 34.375 C20.42489684 36.55035195 19.74626063 38.71517275 18.98828125 40.8515625 C18.62089844 41.89054687 18.25351562 42.92953125 17.875 44 C17.50117188 44.969375 17.12734375 45.93875 16.7421875 46.9375 C15.34607238 52.69831186 17.28245341 58.57118603 18.55859375 64.26171875 C18.86524724 65.64257527 19.17188743 67.02343474 19.47851562 68.40429688 C19.95587181 70.53886199 20.43428703 72.67318589 20.91333008 74.80737305 C24.91840424 92.6881314 27.45638415 106.51939071 21.52734375 124.30859375 C19.33585685 130.91202321 17.48449203 137.61886126 15.58740234 144.31152344 C13.90765852 150.15504317 12.01312626 155.86079357 9.89477539 161.55981445 C8.82056912 164.48933469 7.88957278 167.44710579 7 170.4375 C5.11793458 176.66624031 3.08750716 182.83741237 1 189 C0.01 189 -0.98 189 -2 189 C-2.17015625 188.27296875 -2.3403125 187.5459375 -2.515625 186.796875 C-4.09258601 180.25416443 -5.95692158 173.92902752 -8.23046875 167.59375 C-9 165 -9 165 -9 161 C-9.66 161 -10.32 161 -11 161 C-11.50588147 159.08487728 -12.00448391 157.16783078 -12.5 155.25 C-12.7784375 154.18265625 -13.056875 153.1153125 -13.34375 152.015625 C-14 149 -14 149 -14 145 C-14.66 145 -15.32 145 -16 145 C-16.16081055 144.39115967 -16.32162109 143.78231934 -16.48730469 143.1550293 C-17.23635854 140.33111763 -17.99314539 137.50933052 -18.75 134.6875 C-19.12898438 133.25180664 -19.12898438 133.25180664 -19.515625 131.78710938 C-20.82921594 126.91040302 -22.26722273 122.39510117 -24.32421875 117.78125 C-27.05964355 110.41163964 -25.38486578 103.31313554 -24.0625 95.8125 C-23.8188112 94.30647293 -23.57713265 92.80011929 -23.33740234 91.29345703 C-21.71493768 81.30058621 -19.80041302 71.35697873 -17.43774414 61.51098633 C-15.47031894 52.987033 -16.57726229 46.62694791 -19.4765625 38.39453125 C-20.73861638 32.62110564 -17.6534669 27.93864325 -15 23 C-14.60425781 22.25685547 -14.20851563 21.51371094 -13.80078125 20.74804688 C-5.53705441 5.53705441 -5.53705441 5.53705441 0 0 Z " fill="#282A39" transform="translate(304,359)"/>
<path d="M0 0 C3.63 0.33 7.26 0.66 11 1 C11.33 2.32 11.66 3.64 12 5 C13.00160156 4.81824219 14.00320312 4.63648438 15.03515625 4.44921875 C19.10269235 3.98836491 22.39189223 4.2461964 26.4375 4.8125 C33.61257991 5.75289962 40.78818023 6.46673108 48 7.0625 C49.01852051 7.14878662 50.03704102 7.23507324 51.08642578 7.32397461 C55.79295743 7.71009554 60.48715219 8.04364731 65.20703125 8.20703125 C66.38362305 8.25234985 66.38362305 8.25234985 67.58398438 8.29858398 C69.02620133 8.34803774 70.46910878 8.38118434 71.91210938 8.39477539 C75.05557171 8.50310172 76.62602725 8.64476336 78.94921875 10.8515625 C80 13 80 13 80 16 C80.495 15.835 80.99 15.67 81.5 15.5 C86.05963297 14.58807341 90.55868337 14.51956112 95 16 C95.226875 15.21625 95.45375 14.4325 95.6875 13.625 C97 11 97 11 99.1940918 9.88256836 C102.24781579 8.9220522 105.01880269 8.5381993 108.20703125 8.25390625 C109.42253662 8.14014648 110.63804199 8.02638672 111.89038086 7.90917969 C113.18468018 7.79477539 114.47897949 7.68037109 115.8125 7.5625 C118.51869817 7.31347423 121.22428635 7.05831182 123.9296875 6.80078125 C124.60871628 6.73651947 125.28774506 6.67225769 125.98735046 6.60604858 C133.47463241 5.8827375 140.92792585 4.90087024 148.37231445 3.82641602 C153.54380092 3.12411538 157.87482944 2.95663653 163 4 C163 3.01 163 2.02 163 1 C166.63 0.67 170.26 0.34 174 0 C173.48342956 4.4425058 172.3993519 7.25701103 170 11 C168.28062518 14.73497153 167.61099662 18.11603853 167.125 22.1875 C165.89902914 30.57922302 164.06218601 38.66412612 157 44 C149.77922059 48.31340288 142.95331469 48.67099786 134.6875 48.625 C133.54087891 48.65722656 132.39425781 48.68945312 131.21289062 48.72265625 C120.32817127 48.73497625 112.14309847 45.12704103 104.125 37.8125 C100.25826723 33.69313133 97.65899633 29.24922324 95.19140625 24.1875 C94.19306924 21.85837708 94.19306924 21.85837708 92 21 C90.29297265 20.93003986 88.58331997 20.91559846 86.875 20.9375 C85.50988281 20.95103516 85.50988281 20.95103516 84.1171875 20.96484375 C83.06917969 20.98224609 83.06917969 20.98224609 82 21 C81.6596875 21.68964844 81.319375 22.37929687 80.96875 23.08984375 C75.45959775 33.77115223 68.77601497 42.69171112 57.24169922 47.03979492 C51.95402063 48.60602778 46.72965004 48.36882922 41.25 48.375 C40.12078125 48.39949219 38.9915625 48.42398438 37.828125 48.44921875 C29.52691823 48.47804238 22.0175667 47.59989888 15.6328125 41.87890625 C12.0233137 36.33374359 9.84490997 31.1054147 8.109375 24.7265625 C6.50864337 19.34945695 4.39843187 14.19725969 2.28515625 9.00390625 C1.98996094 8.26785156 1.69476563 7.53179687 1.390625 6.7734375 C1.12282227 6.11778809 0.85501953 5.46213867 0.57910156 4.78662109 C0 3 0 3 0 0 Z " fill="#201C1D" transform="translate(212,171)"/>
<path d="M0 0 C2 1.375 2 1.375 4 3 C4 3.66 4 4.32 4 5 C4.66 5 5.32 5 6 5 C6 5.66 6 6.32 6 7 C7.0828125 7.4021875 7.0828125 7.4021875 8.1875 7.8125 C11 9 11 9 13.25 10.5 C16.31353155 12.17101721 18.97156859 12.79668572 22.37109375 13.46875 C25.29293052 14.05919547 28.16921623 14.78295322 31.0625 15.5 C38.63987592 17.26865291 46.27612114 18.15721476 54 19 C52.64629972 22.84915788 50.89797514 25.62108722 48.375 28.8125 C44.91859535 33.45684629 42.1504193 38.1985692 39.5625 43.375 C39.2207373 44.05280518 38.87897461 44.73061035 38.52685547 45.42895508 C35.27984958 51.97219304 35.27984958 51.97219304 35.8125 58.98046875 C36.4003125 60.56794922 36.4003125 60.56794922 37 62.1875 C40.17110249 72.06416297 37.86151418 79.85430195 35.65869141 89.75073242 C33.73886565 98.64432096 32.55894906 107.63645968 31.39526367 116.65576172 C31.24162354 117.80963379 31.0879834 118.96350586 30.9296875 120.15234375 C30.79804199 121.18351318 30.66639648 122.21468262 30.53076172 123.27709961 C30.02730237 125.85993405 29.30643066 127.73287887 28 130 C24.70809721 119.68681807 21.86368141 109.28343959 19.125 98.8125 C18.90523499 97.97253479 18.68546997 97.13256958 18.45904541 96.26715088 C12.71725628 74.27578105 7.75778527 52.28746088 3.625 29.9375 C3.44338318 28.96617126 3.26176636 27.99484253 3.074646 26.99407959 C2.55372677 24.19423514 2.0445443 21.39251182 1.5390625 18.58984375 C1.38314636 17.7564296 1.22723022 16.92301544 1.06658936 16.06434631 C0.10556644 10.63191831 -0.13606368 5.51748575 0 0 Z " fill="#D8D6D4" transform="translate(250,339)"/>
<path d="M0 0 C0.33 0 0.66 0 1 0 C0.35935469 9.44167826 -0.85725904 18.77019106 -2.25 28.125 C-2.35882507 28.86178986 -2.46765015 29.59857971 -2.57977295 30.35769653 C-4.07234979 40.42058395 -5.71217668 50.44454548 -7.625 60.4375 C-7.91552246 61.96044678 -7.91552246 61.96044678 -8.21191406 63.51416016 C-9.33605104 69.20046723 -10.72456766 74.75415672 -12.29199219 80.33325195 C-13.18704556 83.70451679 -13.85724776 87.09693984 -14.51269531 90.52148438 C-15.35209943 94.79083838 -16.36447067 99.01843314 -17.375 103.25 C-17.69827271 104.60774536 -17.69827271 104.60774536 -18.02807617 105.99291992 C-19.81106421 113.39327184 -21.80677051 120.70965618 -24 128 C-26.21614704 124.28233959 -26.85665953 120.31802204 -27.62109375 116.12109375 C-27.76652115 115.35378433 -27.91194855 114.58647491 -28.06178284 113.7959137 C-28.5260112 111.34413337 -28.98248619 108.89100585 -29.4375 106.4375 C-30.03503357 103.22683841 -30.63710649 100.0171033 -31.24609375 96.80859375 C-31.3922261 96.03752792 -31.53835846 95.2664621 -31.68891907 94.47203064 C-32.69783827 89.26453274 -33.93491077 84.17345312 -35.47509766 79.09375 C-37.04330692 72.83841854 -33.94163372 66.73649401 -31.7421875 60.96484375 C-30.1888817 54.75979583 -32.65961959 50.1160252 -35.625 44.75 C-35.97965332 44.09684814 -36.33430664 43.44369629 -36.69970703 42.77075195 C-40.17397602 36.4832064 -43.89530719 30.10469281 -49 25 C-49 24.01 -49 23.02 -49 22 C-48.11699219 21.90203125 -47.23398437 21.8040625 -46.32421875 21.703125 C-39.36317269 20.8357981 -33.12550718 19.61040967 -26.609375 17.0078125 C-23.17018115 15.6795011 -19.65798526 14.74015524 -16.09375 13.80859375 C-13.74200473 12.90036377 -12.68635559 11.84093818 -11 10 C-8 8 -8 8 -5 8 C-5 7.34 -5 6.68 -5 6 C-4.34 6 -3.68 6 -3 6 C-3 5.01 -3 4.02 -3 3 C-2.34 3 -1.68 3 -1 3 C-0.67 2.01 -0.34 1.02 0 0 Z " fill="#D7D6D4" transform="translate(355,336)"/>
<path d="M0 0 C1.9609375 1.15234375 1.9609375 1.15234375 4 3 C4.5390625 5.56640625 4.5390625 5.56640625 4.625 8.5625 C4.8703788 13.23585077 5.4161479 17.56318472 6.40234375 22.12890625 C7.16244063 25.78035204 7.79912381 29.45083612 8.4375 33.125 C8.6963435 34.5937978 8.95546092 36.06254735 9.21484375 37.53125 C9.60783157 39.75964192 9.99800647 41.98834154 10.37939453 44.21875 C10.74523294 46.35558971 11.12173894 48.49032916 11.5 50.625 C11.7165625 51.87539063 11.933125 53.12578125 12.15625 54.4140625 C12.89500567 58.0423956 12.89500567 58.0423956 14.5 61.41015625 C16.51400921 66.23014184 17.11176588 70.97743235 17.81640625 76.12304688 C18.12026485 78.09812779 18.55202255 80.05254246 19 82 C20.485 82.99 20.485 82.99 22 84 C22.81436587 81.58394775 23.62655397 79.16720002 24.4375 76.75 C24.66759766 76.06808594 24.89769531 75.38617188 25.13476562 74.68359375 C26.20803714 71.47933387 27.26015608 68.29953381 28 65 C28.66 65 29.32 65 30 65 C30.33 62.69 30.66 60.38 31 58 C31.66 58 32.32 58 33 58 C33.33 57.01 33.66 56.02 34 55 C34.73970585 56.9501336 35.47649262 58.90144656 36.1953125 60.859375 C36.83104793 62.5505547 37.52961233 64.21810836 38.25 65.875 C40.15259395 73.80247479 37.39266638 81.96953974 35.65820312 89.74902344 C33.74112666 98.64384597 32.55904113 107.63574607 31.39526367 116.65576172 C31.24162354 117.80963379 31.0879834 118.96350586 30.9296875 120.15234375 C30.79804199 121.18351318 30.66639648 122.21468262 30.53076172 123.27709961 C30.02730237 125.85993405 29.30643066 127.73287887 28 130 C24.70809721 119.68681807 21.86368141 109.28343959 19.125 98.8125 C18.90523499 97.97253479 18.68546997 97.13256958 18.45904541 96.26715088 C12.71725628 74.27578105 7.75778527 52.28746088 3.625 29.9375 C3.44338318 28.96617126 3.26176636 27.99484253 3.074646 26.99407959 C2.55372677 24.19423514 2.0445443 21.39251182 1.5390625 18.58984375 C1.38314636 17.7564296 1.22723022 16.92301544 1.06658936 16.06434631 C0.10556644 10.63191831 -0.13606368 5.51748575 0 0 Z " fill="#B8B7B7" transform="translate(250,339)"/>
<path d="M0 0 C0.33 0 0.66 0 1 0 C0.35935469 9.44167826 -0.85725904 18.77019106 -2.25 28.125 C-2.35882507 28.86178986 -2.46765015 29.59857971 -2.57977295 30.35769653 C-4.07234979 40.42058395 -5.71217668 50.44454548 -7.625 60.4375 C-7.81868164 61.45279785 -8.01236328 62.4680957 -8.21191406 63.51416016 C-9.33605104 69.20046723 -10.72456766 74.75415672 -12.29199219 80.33325195 C-13.18704556 83.70451679 -13.85724776 87.09693984 -14.51269531 90.52148438 C-15.35209943 94.79083838 -16.36447067 99.01843314 -17.375 103.25 C-17.69827271 104.60774536 -17.69827271 104.60774536 -18.02807617 105.99291992 C-19.81106421 113.39327184 -21.80677051 120.70965618 -24 128 C-26.21614704 124.28233959 -26.85665953 120.31802204 -27.62109375 116.12109375 C-27.76652115 115.35378433 -27.91194855 114.58647491 -28.06178284 113.7959137 C-28.5260112 111.34413337 -28.98248619 108.89100585 -29.4375 106.4375 C-30.03503364 103.22683802 -30.63762263 100.01720102 -31.24609375 96.80859375 C-31.39154633 96.03494476 -31.5369989 95.26129578 -31.68685913 94.46420288 C-32.51566156 90.15918078 -33.52112573 85.98829127 -34.78515625 81.78515625 C-36.82191737 74.6551272 -34.80578848 68.82240464 -32.4375 62.0625 C-32.20353516 61.37865234 -31.96957031 60.69480469 -31.72851562 59.99023438 C-31.15788171 58.32491499 -30.57972902 56.66217507 -30 55 C-28.17159331 57.74261004 -27.43465805 59.52070862 -26.5625 62.625 C-25.59553152 66.00202699 -24.55270909 69.31592471 -23.375 72.625 C-21.97014851 76.75129154 -21.39414817 80.66437009 -21 85 C-19.02 84.505 -19.02 84.505 -17 84 C-16.3733471 80.38928567 -15.82070423 76.7739379 -15.31640625 73.14453125 C-15.19330078 72.27505859 -15.07019531 71.40558594 -14.94335938 70.50976562 C-14.68790596 68.70063145 -14.43796944 66.89071029 -14.19335938 65.08007812 C-14.06896484 64.21447266 -13.94457031 63.34886719 -13.81640625 62.45703125 C-13.70756104 61.67303955 -13.59871582 60.88904785 -13.48657227 60.08129883 C-13 58 -13 58 -11 55 C-10.63607938 53.2006147 -10.3570764 51.3835893 -10.125 49.5625 C-9.42406871 44.53822452 -8.53099424 39.60898302 -7.48266602 34.64575195 C-3.56129071 20.11622974 -3.56129071 20.11622974 -5 6 C-4.34 6 -3.68 6 -3 6 C-3 5.01 -3 4.02 -3 3 C-2.34 3 -1.68 3 -1 3 C-0.67 2.01 -0.34 1.02 0 0 Z " fill="#B6B4B5" transform="translate(355,336)"/>
<path d="M0 0 C2.32500916 3.48751374 3.8512034 7.1426624 5.4375 11 C5.75315918 11.763125 6.06881836 12.52625 6.39404297 13.3125 C8.42765621 18.32613473 9.96554233 23.29166126 11.24609375 28.55078125 C12.52474206 32.70473198 14.70729713 36.32986299 17 40 C15.68 40 14.36 40 13 40 C12.67 40.66 12.34 41.32 12 42 C11.34 42 10.68 42 10 42 C10.144375 43.0621875 10.28875 44.124375 10.4375 45.21875 C10.62526946 46.6457979 10.81275419 48.07288329 11 49.5 C11.14308594 50.54414063 11.14308594 50.54414063 11.2890625 51.609375 C11.9161622 56.44700129 12.08789528 61.12181196 12 66 C9.03 66 6.06 66 3 66 C-3.26608834 55.62854343 -3.89074474 42.95381488 -5.4609375 31.1640625 C-5.95126413 28.28605835 -6.66678023 25.74928475 -7.625 23 C-9.60264367 17.0071404 -10.89900215 7.7980043 -8 2 C-6.15234375 1.3671875 -6.15234375 1.3671875 -3.9375 0.875 C-3.20402344 0.70742187 -2.47054687 0.53984375 -1.71484375 0.3671875 C-1.14894531 0.24601563 -0.58304688 0.12484375 0 0 Z " fill="#EA9E71" transform="translate(212,174)"/>
<path d="M0 0 C6.06128747 0.45593755 10.25310755 1.74316128 15.5 4.75 C16.15363525 5.11125977 16.80727051 5.47251953 17.48071289 5.84472656 C21.47420726 8.07046194 25.37839388 10.41497515 29.21484375 12.90234375 C32.36048338 14.83653354 35.67581188 16.39726644 39 18 C38.67 23.28 38.34 28.56 38 34 C33.16699515 34 32.06059678 33.81229658 28.1875 31.5 C27.00220703 30.80390625 27.00220703 30.80390625 25.79296875 30.09375 C25.20128906 29.7328125 24.60960937 29.371875 24 29 C24 28.34 24 27.68 24 27 C23.46375 26.7525 22.9275 26.505 22.375 26.25 C15.00713051 22.37217395 11.0394323 17.59801961 6 11 C2.98603942 6.94059134 2.98603942 6.94059134 -1 4 C-0.67 2.68 -0.34 1.36 0 0 Z " fill="#191D28" transform="translate(262,19)"/>
<path d="M0 0 C0.66 0 1.32 0 2 0 C6.11755033 10.93360822 4.79934264 20.07461757 1 31 C0.01 32.485 0.01 32.485 -1 34 C-3.44073234 41.77983434 -4.07924936 49.9287391 -5 58 C-8.14785176 54.51038148 -9.08731441 50.71619879 -10.125 46.25 C-10.29386719 45.57195312 -10.46273438 44.89390625 -10.63671875 44.1953125 C-11.77452975 39.48280395 -12.47064537 34.81820748 -13 30 C-11.02 30.99 -9.04 31.98 -7 33 C-7.03738281 32.00613281 -7.07476562 31.01226562 -7.11328125 29.98828125 C-6.99566502 25.84737875 -6.25654191 22.15932779 -5.1875 18.1875 C-5.00735352 17.49333984 -4.82720703 16.79917969 -4.64160156 16.08398438 C-3.22513625 10.68386704 -1.68859677 5.32163829 0 0 Z " fill="#D7D5D3" transform="translate(284,398)"/>
<path d="M0 0 C0.66 0 1.32 0 2 0 C2.27714844 1.20398438 2.55429687 2.40796875 2.83984375 3.6484375 C3.20559679 5.22398907 3.57148945 6.79950823 3.9375 8.375 C4.11990234 9.1690625 4.30230469 9.963125 4.49023438 10.78125 C4.66748047 11.54179687 4.84472656 12.30234375 5.02734375 13.0859375 C5.18968506 13.7876709 5.35202637 14.4894043 5.51928711 15.21240234 C5.9588074 17.08394574 5.9588074 17.08394574 7 19 C7.22622081 20.70363822 7.40888473 22.41328701 7.5625 24.125 C7.64628906 25.03507812 7.73007812 25.94515625 7.81640625 26.8828125 C7.87699219 27.58148438 7.93757813 28.28015625 8 29 C9.65 28.67 11.3 28.34 13 28 C13 29.65 13 31.3 13 33 C12.34 33 11.68 33 11 33 C11.061875 34.11375 11.12375 35.2275 11.1875 36.375 C11.19663397 41.48088929 9.99487166 46.30564604 8 51 C7.01 51.495 7.01 51.495 6 52 C5.96261719 51.38253906 5.92523438 50.76507813 5.88671875 50.12890625 C5.46510226 44.69749382 4.55886466 40.06836992 2.5234375 35.0078125 C1.90240016 32.6256245 2.36504023 31.34082182 3 29 C2.67 28.01 2.34 27.02 2 26 C1.01 25.67 0.02 25.34 -1 25 C-3.8980104 18.35297615 -4.84400376 11.89481627 -2.25390625 5.01953125 C-1.5477579 3.32680242 -0.77932838 1.6603083 0 0 Z " fill="#D7D6D3" transform="translate(323,399)"/>
<path d="M0 0 C1.74627478 2.61941217 2.38722388 4.03824877 3 7 C3.66 7 4.32 7 5 7 C15.30306277 17.99735034 17.38513629 29.89158165 17.03173828 44.37304688 C16.98320108 48.39043394 17.26625869 52.37072894 17.5625 56.375 C17.68818359 58.30472656 17.68818359 58.30472656 17.81640625 60.2734375 C17.87699219 61.17320312 17.93757813 62.07296875 18 63 C15.36 63 12.72 63 10 63 C10 55.08 10 47.16 10 39 C10.66 39 11.32 39 12 39 C11.98839844 38.37351562 11.97679687 37.74703125 11.96484375 37.1015625 C11.95582031 36.28429687 11.94679687 35.46703125 11.9375 34.625 C11.92589844 33.81289063 11.91429687 33.00078125 11.90234375 32.1640625 C12 30 12 30 13 28 C12.01 28.33 11.02 28.66 10 29 C10.33 27.02 10.66 25.04 11 23 C10.34 23 9.68 23 9 23 C9 22.34 9 21.68 9 21 C7.35 21.33 5.7 21.66 4 22 C3.39868695 19.16523847 2.92229421 16.37835367 2.5625 13.5 C2.1467781 10.08165778 2.1467781 10.08165778 0.9375 7.375 C-0.09752133 4.75294596 -0.15959779 2.79296141 0 0 Z " fill="#434456" transform="translate(230,265)"/>
<path d="M0 0 C2.3151356 1.69018923 3.78552713 3.11605196 4.47399902 5.95358276 C4.75274929 8.43746338 4.91963395 10.90605719 5.046875 13.40234375 C5.10780334 14.31705948 5.16873169 15.23177521 5.23150635 16.17420959 C5.42170715 19.09450786 5.58597681 22.01562653 5.75 24.9375 C5.87463986 26.90049687 6.00092365 28.86339011 6.12890625 30.82617188 C7.08690807 45.8651818 7.08690807 45.8651818 7 51 C6.34 50.67 5.68 50.34 5 50 C4.34 50.99 3.68 51.98 3 53 C1.04428411 35.27025644 -0.50610343 17.86357665 0 0 Z " fill="#C88962" transform="translate(246,290)"/>
<path d="M0 0 C0.66 0 1.32 0 2 0 C6.22894313 11.22939701 4.4001997 19.75154062 1 31 C0.34 30.34 -0.32 29.68 -1 29 C-1.66 29.66 -2.32 30.32 -3 31 C-3 29.35 -3 27.7 -3 26 C-3.66 26.33 -4.32 26.66 -5 27 C-5.65555119 29.52733235 -5.65555119 29.52733235 -6 32 C-6.33 32 -6.66 32 -7 32 C-6.56873432 24.31157393 -5.2445027 17.35522479 -3 10 C-2.57267578 8.55753906 -2.57267578 8.55753906 -2.13671875 7.0859375 C-1.43388728 4.72095955 -0.7216088 2.35930252 0 0 Z " fill="#CFCFCE" transform="translate(284,398)"/>
<path d="M0 0 C3.66361498 5.36372389 2.44776167 12.51000829 1.359375 18.5625 C0.82396696 21.08206725 0.28220053 23.60029098 -0.265625 26.1171875 C-1.38789725 32.05090355 -1.7304921 37.9685991 -2 44 C-2.33 44 -2.66 44 -3 44 C-3.39782446 32.91985206 -2.41706541 22.81924515 0 12 C-0.66 12 -1.32 12 -2 12 C-1.97679687 12.60328125 -1.95359375 13.2065625 -1.9296875 13.828125 C-1.90261719 15.02695313 -1.90261719 15.02695313 -1.875 16.25 C-1.85179687 17.03890625 -1.82859375 17.8278125 -1.8046875 18.640625 C-2.0171622 21.20731941 -2.71345895 22.7916067 -4 25 C-3.96519531 23.79601562 -3.93039062 22.59203125 -3.89453125 21.3515625 C-3.8663972 19.77605558 -3.83909663 18.20053362 -3.8125 16.625 C-3.78736328 15.8309375 -3.76222656 15.036875 -3.73632812 14.21875 C-3.70995595 12.14413852 -3.84513538 10.06899135 -4 8 C-4.99 7.34 -5.98 6.68 -7 6 C-7.33 6.99 -7.66 7.98 -8 9 C-9.32 8.34 -10.64 7.68 -12 7 C-11.1875 3.5625 -11.1875 3.5625 -10 0 C-6.21603308 -1.26132231 -3.85909105 -0.91214879 0 0 Z " fill="#E3946B" transform="translate(396,172)"/>
<path d="M0 0 C0.66 1.32 1.32 2.64 2 4 C1.34 4 0.68 4 0 4 C-0.33 5.32 -0.66 6.64 -1 8 C-1.66 8 -2.32 8 -3 8 C-3 8.66 -3 9.32 -3 10 C-4.62498505 11.06639644 -6.30596166 12.04710343 -8 13 C-9.88527333 14.23407018 -11.76847069 15.47070972 -13.64453125 16.71875 C-22.08734198 21.31119099 -28.34098935 21.18733788 -37.8125 20.3125 C-39.03904297 20.22033203 -40.26558594 20.12816406 -41.52929688 20.03320312 C-50.57677836 19.28214776 -50.57677836 19.28214776 -54 17 C-54 16.34 -54 15.68 -54 15 C-53.13286377 15.16008545 -52.26572754 15.3201709 -51.37231445 15.48510742 C-45.98659002 16.30741198 -40.62695094 16.26673906 -35.1875 16.3125 C-34.04990234 16.34150391 -32.91230469 16.37050781 -31.74023438 16.40039062 C-20.80337132 16.48243288 -13.1492696 13.22804782 -5 6 C-3.1919435 4.06906587 -1.60633849 2.10831926 0 0 Z " fill="#EB9564" transform="translate(288,202)"/>
<path d="M0 0 C0.66 0 1.32 0 2 0 C2.02513051 4.03441396 2.04305855 8.06879625 2.05493164 12.10327148 C2.05989273 13.46949052 2.06666372 14.83570444 2.07543945 16.2019043 C2.2401605 42.54758185 2.2401605 42.54758185 -2 49 C-2.66 48.67 -3.32 48.34 -4 48 C-3.855625 46.74316406 -3.71125 45.48632812 -3.5625 44.19140625 C-3.0546678 39.12113093 -2.75811887 34.05249233 -2.5 28.96484375 C-2.45883057 28.15520172 -2.41766113 27.34555969 -2.37524414 26.51138306 C-2.20488 23.11916903 -2.03789988 19.72680933 -1.875 16.33422852 C-1.75406258 13.83587882 -1.62740955 11.33787049 -1.5 8.83984375 C-1.44682617 7.68064674 -1.44682617 7.68064674 -1.39257812 6.49803162 C-1.11332849 1.11332849 -1.11332849 1.11332849 0 0 Z " fill="#C0754F" transform="translate(356,290)"/>
<path d="M0 0 C0 2 0 4 0 6 C0.99 6.33 1.98 6.66 3 7 C2.01 7.33 1.02 7.66 0 8 C-1.51472274 10.27208411 -2.78009593 12.56019185 -4 15 C-3.67 15.99 -3.34 16.98 -3 18 C-3.33 18.33 -3.66 18.66 -4 19 C-3.34 19.33 -2.68 19.66 -2 20 C-1.8125 22.875 -1.8125 22.875 -2 26 C-2.99 26.66 -3.98 27.32 -5 28 C-7.64 24.37 -10.28 20.74 -13 17 C-11.24433814 13.48867628 -9.51015731 10.95946797 -7.0625 7.9375 C-6.37285156 7.08027344 -5.68320313 6.22304688 -4.97265625 5.33984375 C-3.38385308 3.45530297 -1.77941245 1.70131911 0 0 Z " fill="#46475B" transform="translate(177,296)"/>
<path d="M0 0 C0.68707555 2.49064888 1 4.37886292 1 7 C0.34 7 -0.32 7 -1 7 C-1.09474609 7.92232422 -1.09474609 7.92232422 -1.19140625 8.86328125 C-1.37509766 10.07564453 -1.37509766 10.07564453 -1.5625 11.3125 C-1.71912109 12.51326172 -1.71912109 12.51326172 -1.87890625 13.73828125 C-3.59664585 17.20368622 -6.52354064 17.62292716 -10 19 C-9.99476318 20.13429443 -9.98952637 21.26858887 -9.98413086 22.43725586 C-9.96591072 26.68090005 -9.95450629 30.92454084 -9.94506836 35.16821289 C-9.94006681 36.99829695 -9.93326344 38.82837707 -9.92456055 40.65844727 C-9.91231068 43.30225604 -9.90672977 45.94601158 -9.90234375 48.58984375 C-9.89718246 49.39646957 -9.89202118 50.2030954 -9.88670349 51.03416443 C-9.88631937 55.00159731 -10.00007341 58.94518248 -10.31860352 62.90063477 C-10.37573013 63.61623062 -10.43285675 64.33182648 -10.49171448 65.06910706 C-11.11641906 67.44225684 -12.15796368 68.42796366 -14 70 C-13.93941406 68.8553125 -13.87882812 67.710625 -13.81640625 66.53125 C-13.77692871 65.74790283 -13.73745117 64.96455566 -13.69677734 64.1574707 C-13.60550664 62.35114043 -13.51064952 60.54498854 -13.41259766 58.73901367 C-13.1456973 53.47226632 -12.9741579 48.22135453 -12.96281433 42.94717407 C-12.95505153 40.10795548 -12.92202093 37.26919709 -12.8888855 34.43017578 C-12.87971725 33.03192745 -12.88267101 31.63354071 -12.89846802 30.23535156 C-13.00435512 20.27987906 -11.55157846 14.52165237 -5 7 C-4.00639375 5.63539787 -3.02554521 4.26133917 -2.0625 2.875 C-1.381875 1.92625 -0.70125 0.9775 0 0 Z " fill="#57474D" transform="translate(370,271)"/>
<path d="M0 0 C0.66 0.33 1.32 0.66 2 1 C1.71617054 2.75128818 1.42260471 4.50100003 1.125 6.25 C0.96257812 7.22453125 0.80015625 8.1990625 0.6328125 9.203125 C0 12 0 12 -0.97265625 13.86328125 C-2.11933671 16.2482022 -2.59457377 18.38366992 -3.0703125 20.984375 C-3.24433594 21.91894531 -3.41835938 22.85351562 -3.59765625 23.81640625 C-3.77167969 24.78449219 -3.94570313 25.75257813 -4.125 26.75 C-4.30675781 27.73355469 -4.48851562 28.71710938 -4.67578125 29.73046875 C-5.12260185 32.15270672 -5.56380188 34.57583055 -6 37 C-7.65 36.34 -9.3 35.68 -11 35 C-10.6875 33.0625 -10.6875 33.0625 -10 31 C-9.01 30.67 -8.02 30.34 -7 30 C-7.33 29.01 -7.66 28.02 -8 27 C-8.66 27.33 -9.32 27.66 -10 28 C-9.45898349 23.67186791 -8.33243731 19.9477689 -6.71875 15.9296875 C-5.9901486 13.97355112 -5.46968733 12.03230096 -5 10 C-4.34 10 -3.68 10 -3 10 C-2.67 7.69 -2.34 5.38 -2 3 C-1.34 3 -0.68 3 0 3 C0 2.01 0 1.02 0 0 Z " fill="#BCBCBA" transform="translate(283,394)"/>
<path d="M0 0 C1.82840669 2.74261004 2.56534195 4.52070862 3.4375 7.625 C4.40446848 11.00202699 5.44729091 14.31592471 6.625 17.625 C9.92486085 27.4896634 9.92486085 27.4896634 8.125 32.375 C7.75375 32.91125 7.3825 33.4475 7 34 C6.67 34.66 6.34 35.32 6 36 C8.475 35.505 8.475 35.505 11 35 C10.01 35.99 9.02 36.98 8 38 C7.01 37.67 6.02 37.34 5 37 C4.96132813 36.16082031 4.96132813 36.16082031 4.921875 35.3046875 C4.44850927 28.61301738 2.85074335 22.58972887 0.83984375 16.19921875 C0.07479206 13.28490558 -0.17380163 10.9882668 0 8 C-0.66 8 -1.32 8 -2 8 C-1.34 5.36 -0.68 2.72 0 0 Z " fill="#BDBCBB" transform="translate(325,391)"/>
<path d="M0 0 C0.33 0.66 0.66 1.32 1 2 C1.99 2.33 2.98 2.66 4 3 C3.01 3.495 3.01 3.495 2 4 C1.59270772 6.32156597 1.25561323 8.6568787 1 11 C1.33 11 1.66 11 2 11 C2 16.28 2 21.56 2 27 C1.01 27.33 0.02 27.66 -1 28 C-1.33 30.31 -1.66 32.62 -2 35 C-2.33 35 -2.66 35 -3 35 C-3.125 27.25 -3.125 27.25 -2 25 C-2.66 25 -3.32 25 -4 25 C-4.33 25.66 -4.66 26.32 -5 27 C-5.66 26.67 -6.32 26.34 -7 26 C-6.79503906 25.39414063 -6.59007812 24.78828125 -6.37890625 24.1640625 C-4.93135622 19.66211265 -3.83770295 15.47784133 -3.5 10.75 C-3.19141638 6.58740388 -2.18998211 3.61823131 0 0 Z " fill="#E88B5C" transform="translate(382,181)"/>
<path d="M0 0 C0.66 0 1.32 0 2 0 C2.27714844 1.20398438 2.55429687 2.40796875 2.83984375 3.6484375 C3.20559679 5.22398907 3.57148945 6.79950823 3.9375 8.375 C4.11990234 9.1690625 4.30230469 9.963125 4.49023438 10.78125 C4.66748047 11.54179687 4.84472656 12.30234375 5.02734375 13.0859375 C5.18968506 13.7876709 5.35202637 14.4894043 5.51928711 15.21240234 C5.9588074 17.08394574 5.9588074 17.08394574 7 19 C7.039992 20.99960012 7.04346799 23.00047242 7 25 C6.67 25 6.34 25 6 25 C6 23.35 6 21.7 6 20 C4.68 19.34 3.36 18.68 2 18 C1.34 20.31 0.68 22.62 0 25 C-3.10171904 20.34742145 -4.10196645 15.9373625 -3.8125 10.4375 C-2.91854262 6.65537261 -1.64832645 3.51165199 0 0 Z " fill="#CDCDCC" transform="translate(323,399)"/>
<path d="M0 0 C1.81293089 0.14037521 3.6253443 0.28744889 5.4375 0.4375 C6.95150391 0.55931641 6.95150391 0.55931641 8.49609375 0.68359375 C11 1 11 1 12 2 C12.28743526 6.21571713 11.79760213 9.18009548 10 13 C9.34 13 8.68 13 8 13 C8.20625 13.94875 8.4125 14.8975 8.625 15.875 C8.74875 16.90625 8.8725 17.9375 9 19 C8.34 19.66 7.68 20.32 7 21 C5.82504857 18.06574629 4.66149148 15.12710487 3.5 12.1875 C3.16613281 11.35412109 2.83226562 10.52074219 2.48828125 9.66210938 C2.17246094 8.85966797 1.85664063 8.05722656 1.53125 7.23046875 C1.23798828 6.49207764 0.94472656 5.75368652 0.64257812 4.99291992 C0 3 0 3 0 0 Z " fill="#510E05" transform="translate(212,171)"/>
<path d="M0 0 C6.96050253 0.38669459 11.9394075 2.63438409 18 6 C17.01 7.485 17.01 7.485 16 9 C14.68 9 13.36 9 12 9 C12.66 9.66 13.32 10.32 14 11 C11.525 12.485 11.525 12.485 9 14 C6.66666667 11.66666667 4.33333333 9.33333333 2 7 C1.13375 6.21109375 1.13375 6.21109375 0.25 5.40625 C-0.1625 4.9421875 -0.575 4.478125 -1 4 C-0.6875 1.8125 -0.6875 1.8125 0 0 Z " fill="#20242E" transform="translate(262,19)"/>
<path d="M0 0 C1.05422013 3.27333221 0.91914962 5.60136695 0.29296875 8.96484375 C0.11926758 9.92447021 -0.05443359 10.88409668 -0.23339844 11.87280273 C-0.42450195 12.88415283 -0.61560547 13.89550293 -0.8125 14.9375 C-1.18974641 17.01024502 -1.56605364 19.0831612 -1.94140625 21.15625 C-2.12461426 22.15785156 -2.30782227 23.15945313 -2.49658203 24.19140625 C-3.43816755 29.44455846 -4.22967393 34.71921205 -5 40 C-6.84036681 37.23944978 -7.68344114 35.25401883 -8.625 32.125 C-8.88539063 31.28195312 -9.14578125 30.43890625 -9.4140625 29.5703125 C-10.00963022 26.95775542 -10.10525251 24.66958629 -10 22 C-7 23 -7 23 -6 25 C-4.71253491 22.42506982 -4.7423745 20.31182116 -4.5625 17.4375 C-3.48818449 3.48818449 -3.48818449 3.48818449 0 0 Z " fill="#B0B0B1" transform="translate(284,429)"/>
<path d="M0 0 C5.4245404 -0.26678068 5.4245404 -0.26678068 8 0 C9.6875 1.5625 9.6875 1.5625 11 3 C13.65466049 2.76956136 13.65466049 2.76956136 16 2 C16 2.66 16 3.32 16 4 C16.763125 3.690625 17.52625 3.38125 18.3125 3.0625 C20.18789677 2.32106407 22.08684652 1.63771783 24 1 C24 1.99 24 2.98 24 4 C26.64 4 29.28 4 32 4 C32 4.33 32 4.66 32 5 C31.00097656 5.04898437 30.00195312 5.09796875 28.97265625 5.1484375 C27.68230469 5.22320312 26.39195312 5.29796875 25.0625 5.375 C23.77472656 5.44460938 22.48695313 5.51421875 21.16015625 5.5859375 C20.11730469 5.72257812 19.07445312 5.85921875 18 6 C17.67 6.66 17.34 7.32 17 8 C16.67 7.67 16.34 7.34 16 7 C14.52828361 6.72814128 13.04655771 6.50987204 11.5625 6.31640625 C10.66789062 6.19330078 9.77328125 6.07019531 8.8515625 5.94335938 C6.95102954 5.68952107 5.04998039 5.43951801 3.1484375 5.19335938 C2.25382812 5.06896484 1.35921875 4.94457031 0.4375 4.81640625 C-0.38878906 4.70756104 -1.21507812 4.59871582 -2.06640625 4.48657227 C-2.70449219 4.32600342 -3.34257812 4.16543457 -4 4 C-4.33 3.34 -4.66 2.68 -5 2 C-3.35 2 -1.7 2 0 2 C0 1.34 0 0.68 0 0 Z " fill="#E5A37A" transform="translate(288,352)"/>
<path d="M0 0 C5.94 0 11.88 0 18 0 C17 5 17 5 16 7 C11.05 7 6.1 7 1 7 C0.67 4.69 0.34 2.38 0 0 Z " fill="#D27E55" transform="translate(291,180)"/>
<path d="M0 0 C1.22020419 4.88081676 0.38512558 5.74084717 -2 10 C-2.556875 11.11375 -3.11375 12.2275 -3.6875 13.375 C-4.120625 14.24125 -4.55375 15.1075 -5 16 C-7.44839588 12.32740617 -9 9.45351799 -9 5 C-9.66 4.67 -10.32 4.34 -11 4 C-10.67 3.01 -10.34 2.02 -10 1 C-6.7 0.67 -3.4 0.34 0 0 Z " fill="#530E05" transform="translate(385,171)"/>
<path d="M0 0 C0.66 0.33 1.32 0.66 2 1 C-1.44183863 6.77737199 -1.44183863 6.77737199 -3.71264648 7.68310547 C-6.77438251 8.1072845 -9.75624584 8.12994686 -12.84765625 8.1328125 C-13.50076279 8.13376923 -14.15386932 8.13472595 -14.82676697 8.13571167 C-16.20262753 8.1363901 -17.57849135 8.13455939 -18.9543457 8.13037109 C-21.05882954 8.12500935 -23.16310081 8.13033187 -25.26757812 8.13671875 C-26.6067713 8.13605808 -27.94596435 8.13477714 -29.28515625 8.1328125 C-31.10865601 8.13112061 -31.10865601 8.13112061 -32.96899414 8.12939453 C-36 8 -36 8 -39 7 C-39 6.34 -39 5.68 -39 5 C-38.16863525 5.02094727 -37.33727051 5.04189453 -36.48071289 5.06347656 C-33.35526734 5.1322107 -30.23021079 5.1820689 -27.10424805 5.21972656 C-25.10243949 5.24940781 -23.10098081 5.30027058 -21.09960938 5.3515625 C-13.55156014 5.42761337 -7.50346108 5.07873937 -1 1 C-0.67 0.67 -0.34 0.34 0 0 Z " fill="#D0774C" transform="translate(370,213)"/>
<path d="M0 0 C-0.65793165 1.67013418 -1.32723284 3.3357865 -2 5 C-2.37125 6.175625 -2.7425 7.35125 -3.125 8.5625 C-5.34833178 12.63860827 -7.08995487 13.48879126 -11.2578125 15.17578125 C-13.19322628 15.87206842 -13.19322628 15.87206842 -14 18 C-14.66 17.67 -15.32 17.34 -16 17 C-15.78170647 12.29359143 -13.68354759 10.3087532 -10.38867188 7.29492188 C-9.78603516 6.76447266 -9.18339844 6.23402344 -8.5625 5.6875 C-7.96373047 5.13771484 -7.36496094 4.58792969 -6.74804688 4.02148438 C-2.28694682 0 -2.28694682 0 0 0 Z " fill="#45475B" transform="translate(194,282)"/>
<path d="M0 0 C0.99 0 1.98 0 3 0 C5 2 5 2 5.265625 4.09375 C5.26046875 4.8878125 5.2553125 5.681875 5.25 6.5 C5.25515625 7.2940625 5.2603125 8.088125 5.265625 8.90625 C5 11 5 11 3 13 C3 12.34 3 11.68 3 11 C2.34 11 1.68 11 1 11 C0.87625 11.5775 0.7525 12.155 0.625 12.75 C-0.00648824 15.02335767 -0.88858191 16.9253529 -2 19 C-2.66 19 -3.32 19 -4 19 C-3.37968409 12.42465139 -1.85102717 6.33307408 0 0 Z " fill="#454759" transform="translate(339,429)"/>
<path d="M0 0 C0.66 0.33 1.32 0.66 2 1 C0.38511914 9.67729316 -1.23299635 18.35207625 -3 27 C-3.33 26.34 -3.66 25.68 -4 25 C-4.66 25 -5.32 25 -6 25 C-6.08115175 21.42932313 -5.94808413 18.42860613 -5 15 C-4.690625 13.87207031 -4.38125 12.74414062 -4.0625 11.58203125 C-3.5365625 9.71611328 -3.5365625 9.71611328 -3 7.8125 C-2.649375 6.56082031 -2.29875 5.30914062 -1.9375 4.01953125 C-1 1 -1 1 0 0 Z " fill="#ADACAD" transform="translate(344,399)"/>
<path d="M0 0 C3.04386724 -0.08226668 5.07175348 0.02391783 8 1 C7.7525 1.53625 7.505 2.0725 7.25 2.625 C6.86446856 6.28754864 8.86818034 8.15757379 11 11 C11 10.01 11 9.02 11 8 C12.65 8 14.3 8 16 8 C15.46930939 11.82097239 14.50298434 14.06171403 12 17 C11.38125 16.030625 10.7625 15.06125 10.125 14.0625 C8.34321154 10.97164638 8.34321154 10.97164638 6 10 C4.95355934 8.36209288 3.9601817 6.68991979 3 5 C2.443125 4.071875 1.88625 3.14375 1.3125 2.1875 C0.879375 1.465625 0.44625 0.74375 0 0 Z " fill="#484B5D" transform="translate(176,328)"/>
<path d="M0 0 C0 2 0 4 0 6 C0.99 6.33 1.98 6.66 3 7 C2.01 7.33 1.02 7.66 0 8 C-0.99 9.485 -0.99 9.485 -2 11 C-4.125 12.1875 -4.125 12.1875 -6 13 C-6 13.66 -6 14.32 -6 15 C-7.65 14.67 -9.3 14.34 -11 14 C-7.71842138 8.82390176 -4.54075781 4.14010271 0 0 Z " fill="#4E4F61" transform="translate(177,296)"/>
<path d="M0 0 C2.97 0 5.94 0 9 0 C9.125 5.75 9.125 5.75 8 8 C3.5428126 7.73781251 1.48477302 7.42288711 -1.9375 4.4375 C-2.618125 3.633125 -3.29875 2.82875 -4 2 C-1 2 -1 2 1 3 C0.67 2.01 0.34 1.02 0 0 Z " fill="#EA9D70" transform="translate(263,344)"/>
<path d="M0 0 C0.66 0 1.32 0 2 0 C2.09377123 7.41834582 2.17402193 14.66236293 1 22 C0.01 22 -0.98 22 -2 22 C-1.86181468 18.52048477 -1.71317399 15.04149505 -1.5625 11.5625 C-1.52318359 10.56927734 -1.48386719 9.57605469 -1.44335938 8.55273438 C-1.40146484 7.60849609 -1.35957031 6.66425781 -1.31640625 5.69140625 C-1.27974854 4.81685791 -1.24309082 3.94230957 -1.20532227 3.04125977 C-1 1 -1 1 0 0 Z " fill="#CB784B" transform="translate(356,290)"/>
<path d="M0 0 C0.804375 0.33 1.60875 0.66 2.4375 1 C4.69681125 2.06059041 4.69681125 2.06059041 6 2 C8.60909589 4.60909589 8.26108967 6.46726316 8.2734375 10.0234375 C8.26183594 11.18746094 8.26183594 11.18746094 8.25 12.375 C8.25773437 13.14328125 8.26546875 13.9115625 8.2734375 14.703125 C8.24935951 21.66166486 8.24935951 21.66166486 6 25 C6.03480469 23.79601562 6.06960938 22.59203125 6.10546875 21.3515625 C6.1336028 19.77605558 6.16090337 18.20053362 6.1875 16.625 C6.21263672 15.8309375 6.23777344 15.036875 6.26367188 14.21875 C6.29004405 12.14413852 6.15486462 10.06899135 6 8 C5.01 7.34 4.02 6.68 3 6 C2.67 6.99 2.34 7.98 2 9 C0.68 8.34 -0.64 7.68 -2 7 C-1.34 4.69 -0.68 2.38 0 0 Z " fill="#E48956" transform="translate(386,172)"/>
<path d="M0 0 C0.33 0 0.66 0 1 0 C1.81669118 3.68658448 2.6275948 7.37441928 3.4375 11.0625 C3.78264648 12.62000977 3.78264648 12.62000977 4.13476562 14.20898438 C5.2852361 19.46113217 6.34136657 24.66279803 7 30 C6.34 30 5.68 30 5 30 C5 28.35 5 26.7 5 25 C4.01 24.67 3.02 24.34 2 24 C2.03255208 21.98177083 2.06510417 19.96354167 2.09765625 17.9453125 C2.12649242 15.91814596 2.12649242 15.91814596 1 14 C0.34 14 -0.32 14 -1 14 C-1.02705729 12.22925083 -1.04642195 10.45838289 -1.0625 8.6875 C-1.07410156 7.70136719 -1.08570313 6.71523438 -1.09765625 5.69921875 C-1 3 -1 3 0 0 Z " fill="#4D4E5F" transform="translate(257,386)"/>
<path d="M0 0 C0 0.66 0 1.32 0 2 C-1.32 2.33 -2.64 2.66 -4 3 C-3.34 3.66 -2.68 4.32 -2 5 C-2 6.32 -2 7.64 -2 9 C-4.31 9 -6.62 9 -9 9 C-9 8.34 -9 7.68 -9 7 C-9.99 7 -10.98 7 -12 7 C-12 6.34 -12 5.68 -12 5 C-12.66 4.67 -13.32 4.34 -14 4 C-12.42032193 3.32471777 -10.83608097 2.66010306 -9.25 2 C-8.36828125 1.62875 -7.4865625 1.2575 -6.578125 0.875 C-4 0 -4 0 0 0 Z " fill="#4E4D60" transform="translate(230,263)"/>
<path d="M0 0 C2.5 1.5 2.5 1.5 4 3 C3.67 3.66 3.34 4.32 3 5 C-1.95 5 -6.9 5 -12 5 C-9.12460487 -0.75079027 -6.09761633 -0.72303751 0 0 Z " fill="#24160A" transform="translate(304,186)"/>
<path d="M0 0 C-0.52320367 3.76706644 -1.27388801 6.27388801 -4 9 C-5.32 9 -6.64 9 -8 9 C-8 8.34 -8 7.68 -8 7 C-9.32 7.33 -10.64 7.66 -12 8 C-12 7.01 -12 6.02 -12 5 C-10.37750059 4.16180842 -8.75191503 3.3295884 -7.125 2.5 C-6.22007812 2.0359375 -5.31515625 1.571875 -4.3828125 1.09375 C-2 0 -2 0 0 0 Z " fill="#383F4B" transform="translate(175,118)"/>
<path d="M0 0 C0.66 0.33 1.32 0.66 2 1 C2 2.98 2 4.96 2 7 C2.66 7 3.32 7 4 7 C4.33951619 8.56116819 4.67132544 10.12401338 5 11.6875 C5.185625 12.55761719 5.37125 13.42773438 5.5625 14.32421875 C5.98972047 16.93712964 6.07616201 19.35813038 6 22 C5.01 22 4.02 22 3 22 C2.2996047 19.2735685 1.6144225 16.54476473 0.9375 13.8125 C0.73833984 13.04357422 0.53917969 12.27464844 0.33398438 11.48242188 C-0.68159871 7.33100328 -1.3373939 4.19722993 0 0 Z " fill="#AEAEAD" transform="translate(263,404)"/>
<path d="M0 0 C0.66 0.33 1.32 0.66 2 1 C2 1.99 2 2.98 2 4 C-4.24309927 6.77471079 -9.19796625 7.37634203 -16 7 C-16 6.01 -16 5.02 -16 4 C-16.66 4 -17.32 4 -18 4 C-17.67 3.01 -17.34 2.02 -17 1 C-16.34 1.66 -15.68 2.32 -15 3 C-12.41935871 3.14497985 -9.95056116 3.18677545 -7.375 3.125 C-6.66859375 3.11597656 -5.9621875 3.10695313 -5.234375 3.09765625 C-3.48943902 3.07407603 -1.74467705 3.03820461 0 3 C0 2.01 0 1.02 0 0 Z " fill="#E68A5D" transform="translate(328,349)"/>
<path d="M0 0 C0.6484375 1.8515625 0.6484375 1.8515625 1 4 C-0.66666667 5.66666667 -2.33333333 7.33333333 -4 9 C-4.87989974 12.18150892 -4.87989974 12.18150892 -5 15 C-5.33 14.34 -5.66 13.68 -6 13 C-6.66 13 -7.32 13 -8 13 C-8 13.66 -8 14.32 -8 15 C-9.65 15 -11.3 15 -13 15 C-9.54122788 9.13512553 -4.88678132 4.69882819 0 0 Z " fill="#494D58" transform="translate(244,32)"/>
<path d="M0 0 C1.32 0.66 2.64 1.32 4 2 C4 1.34 4 0.68 4 0 C4.66 0 5.32 0 6 0 C6.02698189 1.62490954 6.04638757 3.24994633 6.0625 4.875 C6.07410156 5.77992188 6.08570313 6.68484375 6.09765625 7.6171875 C6 10 6 10 5 12 C2.69 12 0.38 12 -2 12 C-2 11.01 -2 10.02 -2 9 C-1.01 8.67 -0.02 8.34 1 8 C0.67 5.36 0.34 2.72 0 0 Z " fill="#E88B5B" transform="translate(384,224)"/>
<path d="M0 0 C0.66 0 1.32 0 2 0 C2.05447047 1.41623216 2.09300508 2.83308191 2.125 4.25 C2.14820313 5.03890625 2.17140625 5.8278125 2.1953125 6.640625 C1.9806963 9.23318872 1.29436299 10.76602536 0 13 C-1.72472403 16.23385755 -2.88886744 19.50786908 -4 23 C-6.1309828 16.62227292 -3.95979155 8.76887174 -1.375 2.75 C-0.694375 1.38875 -0.694375 1.38875 0 0 Z " fill="#BFBFBD" transform="translate(345,387)"/>
<path d="M0 0 C2 1 2 1 3 3 C1.78836152 6.63491543 0.89228938 6.95246215 -2.375 8.75 C-3.16648437 9.19859375 -3.95796875 9.6471875 -4.7734375 10.109375 C-7 11 -7 11 -10 10 C-9.67 9.34 -9.34 8.68 -9 8 C-9.66 8 -10.32 8 -11 8 C-11 7.34 -11 6.68 -11 6 C-8.03 6 -5.06 6 -2 6 C-2.33 4.35 -2.66 2.7 -3 1 C-2.01 0.67 -1.02 0.34 0 0 Z " fill="#E58A59" transform="translate(347,338)"/>
<path d="M0 0 C-0.33 1.65 -0.66 3.3 -1 5 C-3.31 5.66 -5.62 6.32 -8 7 C-8.33 6.01 -8.66 5.02 -9 4 C-9.66 3.67 -10.32 3.34 -11 3 C-11 2.01 -11 1.02 -11 0 C-6.98195309 -0.84098656 -3.98196457 -1.05404945 0 0 Z " fill="#313B4B" transform="translate(232,169)"/>
<path d="M0 0 C0.66 0.66 1.32 1.32 2 2 C1.01 3.1446875 1.01 3.1446875 0 4.3125 C-2.29850538 6.84277939 -2.29850538 6.84277939 -2 10 C-0.68 10.66 0.64 11.32 2 12 C-0.31 12.33 -2.62 12.66 -5 13 C-5 12.34 -5 11.68 -5 11 C-5.99 10.67 -6.98 10.34 -8 10 C-7.8125 7.625 -7.8125 7.625 -7 5 C-4.5 3.8125 -4.5 3.8125 -2 3 C-1.67 2.34 -1.34 1.68 -1 1 C-0.67 0.67 -0.34 0.34 0 0 Z " fill="#444656" transform="translate(416,343)"/>
<path d="M0 0 C0.53132389 2.58157368 1.05034379 5.16461756 1.5625 7.75 C1.71396484 8.47960937 1.86542969 9.20921875 2.02148438 9.9609375 C2.74557178 13.66557073 3.09817231 16.39322322 2 20 C-1 16.375 -1 16.375 -1 13 C-1.31088368 11.32900023 -1.64080332 9.66128463 -2 8 C-2.99 7.67 -3.98 7.34 -5 7 C-4.53479806 4.30182875 -3.4249099 0 0 0 Z " fill="#555565" transform="translate(253,360)"/>
<path d="M0 0 C1.74627478 2.61941217 2.38722388 4.03824877 3 7 C3.66 7 4.32 7 5 7 C6.32421875 8.6796875 6.32421875 8.6796875 7.6875 10.875 C8.14511719 11.59429687 8.60273438 12.31359375 9.07421875 13.0546875 C9.53248047 14.01761719 9.53248047 14.01761719 10 15 C9.67 15.66 9.34 16.32 9 17 C8.01 16.34 7.02 15.68 6 15 C5.67 15.99 5.34 16.98 5 18 C4.67 17.01 4.34 16.02 4 15 C3.34 14.67 2.68 14.34 2 14 C1.58244638 11.68025766 1.2644354 9.34214207 1 7 C0.814375 5.700625 0.62875 4.40125 0.4375 3.0625 C0.293125 2.051875 0.14875 1.04125 0 0 Z " fill="#504B5A" transform="translate(230,265)"/>
<path d="M0 0 C2.62962963 3.94444444 2.62962963 3.94444444 3 7 C2.67257812 7.5775 2.34515625 8.155 2.0078125 8.75 C0.34321129 12.46631897 1.07350989 16.22939009 1.3203125 20.22265625 C1 23 1 23 -1.0078125 24.87109375 C-1.99394531 25.42990234 -1.99394531 25.42990234 -3 26 C-2.68914673 22.97898912 -2.37636766 19.95819796 -2.0625 16.9375 C-1.97548828 16.08994141 -1.88847656 15.24238281 -1.79882812 14.36914062 C-1.29757987 9.56087034 -0.71999467 4.78050517 0 0 Z " fill="#535360" transform="translate(355,341)"/>
<path d="M0 0 C1.0625 1.75 1.0625 1.75 2 4 C1.73703125 4.92619141 1.73703125 4.92619141 1.46875 5.87109375 C0.8812632 8.53926297 1.43251795 9.79781159 2.4375 12.3125 C3.94605252 16.45416238 4.27959421 19.61969076 4 24 C3.34 24 2.68 24 2 24 C1.32667007 20.91808296 0.66251141 17.8342592 0 14.75 C-0.19078125 13.87730469 -0.3815625 13.00460937 -0.578125 12.10546875 C-0.75859375 11.26113281 -0.9390625 10.41679687 -1.125 9.546875 C-1.29257812 8.77182617 -1.46015625 7.99677734 -1.6328125 7.19824219 C-2 5 -2 5 -2 1 C-1.34 0.67 -0.68 0.34 0 0 Z " fill="#BFBFBE" transform="translate(325,424)"/>
<path d="M0 0 C3.0833134 -0.02911321 6.16659125 -0.04683682 9.25 -0.0625 C10.12269531 -0.07087891 10.99539063 -0.07925781 11.89453125 -0.08789062 C12.73886719 -0.09111328 13.58320313 -0.09433594 14.453125 -0.09765625 C15.22817383 -0.10289307 16.00322266 -0.10812988 16.80175781 -0.11352539 C18.99283598 -0.00036998 20.89637861 0.39447552 23 1 C23 1.66 23 2.32 23 3 C15.08 3 7.16 3 -1 3 C-0.67 2.01 -0.34 1.02 0 0 Z " fill="#2D3B4E" transform="translate(289,176)"/>
<path d="M0 0 C1.57554035 2.88628401 2.46276373 5.53342384 3.125 8.75 C3.29257812 9.54921875 3.46015625 10.3484375 3.6328125 11.171875 C3.81457031 12.07679688 3.81457031 12.07679688 4 13 C2.35 13.33 0.7 13.66 -1 14 C-2 9.25 -2 9.25 -2 7 C-2.226875 6.360625 -2.45375 5.72125 -2.6875 5.0625 C-2.790625 4.381875 -2.89375 3.70125 -3 3 C-1.5625 1.25 -1.5625 1.25 0 0 Z " fill="#48495D" transform="translate(268,434)"/>
<path d="M0 0 C0.66 0 1.32 0 2 0 C2.8545278 5.98169462 3.66298857 12.0845121 2 18 C1.01 18.99 0.02 19.98 -1 21 C-0.67 14.07 -0.34 7.14 0 0 Z " fill="#46414F" transform="translate(357,320)"/>
<path d="M0 0 C3.26845713 4.90268569 4.27944109 9.13173703 4 15 C3.01 15 2.02 15 1 15 C0.67 12.69 0.34 10.38 0 8 C-0.66 8 -1.32 8 -2 8 C-1.34 5.36 -0.68 2.72 0 0 Z " fill="#B7B6B5" transform="translate(325,391)"/>
<path d="M0 0 C1.32 1.32 2.64 2.64 4 4 C2.07423885 6.43929746 0.19909405 8.80090595 -2 11 C-2.99 10.01 -3.98 9.02 -5 8 C-3.62845496 5.04590299 -2.01136276 2.55991624 0 0 Z " fill="#313440" transform="translate(304,359)"/>
<path d="M0 0 C0 1.66666667 0 3.33333333 0 5 C-1.155 4.835 -2.31 4.67 -3.5 4.5 C-7.69907803 3.96761689 -11.77063041 3.92447554 -16 4 C-11.95384951 -0.04615049 -5.4704121 -1.94111397 0 0 Z " fill="#DCCBC0" transform="translate(336,353)"/>
<path d="M0 0 C-1.04874998 2.62187494 -1.64931313 3.79371361 -4.125 5.25 C-4.74375 5.4975 -5.3625 5.745 -6 6 C-6 6.33 -6 6.66 -6 7 C-7.65 7 -9.3 7 -11 7 C-11 7.66 -11 8.32 -11 9 C-12.32 9 -13.64 9 -15 9 C-15.33 7.68 -15.66 6.36 -16 5 C-15.32453125 4.80664062 -14.6490625 4.61328125 -13.953125 4.4140625 C-12.61507813 4.02347656 -12.61507813 4.02347656 -11.25 3.625 C-10.36828125 3.36976562 -9.4865625 3.11453125 -8.578125 2.8515625 C-6.0149324 2.07361647 -6.0149324 2.07361647 -3.796875 0.8984375 C-2 0 -2 0 0 0 Z " fill="#2E3548" transform="translate(316,31)"/>
<path d="M0 0 C0.99 0 1.98 0 3 0 C3.02689216 1.47906892 3.04634621 2.95827483 3.0625 4.4375 C3.07410156 5.26121094 3.08570313 6.08492188 3.09765625 6.93359375 C3 9 3 9 2 10 C2.33 10 2.66 10 3 10 C3 11.65 3 13.3 3 15 C2.01 14.67 1.02 14.34 0 14 C-0.19532961 12.2300132 -0.38098882 10.45895721 -0.5625 8.6875 C-0.66691406 7.70136719 -0.77132812 6.71523438 -0.87890625 5.69921875 C-1 3 -1 3 0 0 Z " fill="#E79D6F" transform="translate(253,328)"/>
<path d="M0 0 C0.66 0.66 1.32 1.32 2 2 C1.828125 4.3125 1.828125 4.3125 1.25 7 C0.97929687 8.3303125 0.97929687 8.3303125 0.703125 9.6875 C0 12 0 12 -2 14 C-2.99 13.67 -3.98 13.34 -5 13 C-4.54554036 11.58208592 -4.08625056 10.16571954 -3.625 8.75 C-3.24214844 7.56664063 -3.24214844 7.56664063 -2.8515625 6.359375 C-2.04826333 4.13372042 -1.10288338 2.09068328 0 0 Z " fill="#484D59" transform="translate(213,74)"/>
<path d="M0 0 C4.00972202 3.67557852 6.45335415 7.18966896 9 12 C5.02621451 12 3.87350205 10.65246343 1 8 C-0.66238095 5.58199134 -1.10956696 4.65740174 -0.625 1.75 C-0.41875 1.1725 -0.2125 0.595 0 0 Z " fill="#393D4A" transform="translate(362,44)"/>
<path d="M0 0 C0.33 0 0.66 0 1 0 C1.10607393 6.41157971 1.17063143 12.67859027 0 19 C-0.66 19.33 -1.32 19.66 -2 20 C-2 14.06 -2 8.12 -2 2 C-1.34 2 -0.68 2 0 2 C0 1.34 0 0.68 0 0 Z " fill="#E18A5B" transform="translate(354,293)"/>
<path d="M0 0 C0.33 0 0.66 0 1 0 C1 6.27 1 12.54 1 19 C0.34 19 -0.32 19 -1 19 C-1.33 19.66 -1.66 20.32 -2 21 C-2.66 20.67 -3.32 20.34 -4 20 C-3.79503906 19.39414063 -3.59007812 18.78828125 -3.37890625 18.1640625 C-1.4279788 12.09658479 -0.3922385 6.35696876 0 0 Z " fill="#CB764C" transform="translate(379,187)"/>
<path d="M0 0 C0.86963379 0.15847412 1.73926758 0.31694824 2.63525391 0.48022461 C5.73444262 0.95897753 8.70523819 1.19858423 11.8359375 1.31640625 C12.89941406 1.35830078 13.96289062 1.40019531 15.05859375 1.44335938 C16.15300781 1.48267578 17.24742187 1.52199219 18.375 1.5625 C20.05142578 1.62727539 20.05142578 1.62727539 21.76171875 1.69335938 C24.50770199 1.79897411 27.25376881 1.9010797 30 2 C30 2.33 30 2.66 30 3 C25.56319547 3.22547184 21.12562853 3.42745053 16.6875 3.625 C15.42486328 3.68945312 14.16222656 3.75390625 12.86132812 3.8203125 C11.65283203 3.871875 10.44433594 3.9234375 9.19921875 3.9765625 C8.08377686 4.02893066 6.96833496 4.08129883 5.8190918 4.13525391 C3 4 3 4 0 2 C0 1.34 0 0.68 0 0 Z " fill="#B67B58" transform="translate(234,217)"/>
<path d="M0 0 C0.99 0 1.98 0 3 0 C3.19491452 1.45736087 3.38069358 2.91594593 3.5625 4.375 C3.66691406 5.18710937 3.77132812 5.99921875 3.87890625 6.8359375 C4 9 4 9 3 11 C2.01 11 1.02 11 0 11 C-0.33 11.99 -0.66 12.98 -1 14 C-0.67 9.38 -0.34 4.76 0 0 Z " fill="#2F3340" transform="translate(60,453)"/>
<path d="M0 0 C6 7.71428571 6 7.71428571 6 11 C3.69 11 1.38 11 -1 11 C-1.33 10.01 -1.66 9.02 -2 8 C-1.34 7.34 -0.68 6.68 0 6 C-0.29369827 4.65737935 -0.6278958 3.32303717 -1 2 C-0.67 1.34 -0.34 0.68 0 0 Z " fill="#3A3E4C" transform="translate(379,69)"/>
<path d="M0 0 C2.40785992 3.2104799 3.68197635 5.35008834 5 9 C3.6875 10.5 3.6875 10.5 2 12 C1.01 12 0.02 12 -1 12 C-0.67 8.04 -0.34 4.08 0 0 Z " fill="#444556" transform="translate(346,396)"/>
<path d="M0 0 C0.66 0 1.32 0 2 0 C2 0.99 2 1.98 2 3 C4.64 3 7.28 3 10 3 C10 3.33 10 3.66 10 4 C9.00097656 4.04898437 8.00195312 4.09796875 6.97265625 4.1484375 C5.68230469 4.22320312 4.39195312 4.29796875 3.0625 4.375 C1.77472656 4.44460938 0.48695313 4.51421875 -0.83984375 4.5859375 C-1.88269531 4.72257812 -2.92554688 4.85921875 -4 5 C-4.33 5.66 -4.66 6.32 -5 7 C-5.33 6.67 -5.66 6.34 -6 6 C-7.34747084 5.76924918 -8.70377565 5.58846937 -10.0625 5.4375 C-11.361875 5.293125 -12.66125 5.14875 -14 5 C-14 4.67 -14 4.34 -14 4 C-13.15695312 3.96261719 -12.31390625 3.92523438 -11.4453125 3.88671875 C-9.80175781 3.78810547 -9.80175781 3.78810547 -8.125 3.6875 C-7.03445313 3.62949219 -5.94390625 3.57148438 -4.8203125 3.51171875 C-3.88960938 3.34285156 -2.95890625 3.17398437 -2 3 C-1.34 2.01 -0.68 1.02 0 0 Z " fill="#E2A17E" transform="translate(310,353)"/>
<path d="M0 0 C0.68707555 2.49064888 1 4.37886292 1 7 C0.34 7 -0.32 7 -1 7 C-1.33 8.98 -1.66 10.96 -2 13 C-2.66 13 -3.32 13 -4 13 C-4.8125 10.4375 -4.8125 10.4375 -5 7 C-3.61938689 4.41907773 -1.8985496 2.22044902 0 0 Z " fill="#4B414C" transform="translate(370,271)"/>
<path d="M0 0 C-0.0625 1.75 -0.0625 1.75 -1 4 C-5.50741695 7.18170608 -8.36344126 8.54990817 -14 8 C-14 7.34 -14 6.68 -14 6 C-13.38511719 5.73445312 -12.77023437 5.46890625 -12.13671875 5.1953125 C-11.32847656 4.84210938 -10.52023437 4.48890625 -9.6875 4.125 C-8.88699219 3.77695313 -8.08648437 3.42890625 -7.26171875 3.0703125 C-0.77372263 0 -0.77372263 0 0 0 Z " fill="#D88A5E" transform="translate(280,212)"/>
<path d="M0 0 C0.66 1.32 1.32 2.64 2 4 C2.99 4 3.98 4 5 4 C4.14285714 12.57142857 4.14285714 12.57142857 2 16 C0.40837921 10.42932723 -0.20674944 5.78898419 0 0 Z " fill="#B5B4B5" transform="translate(328,448)"/>
<path d="M0 0 C0.66 0.33 1.32 0.66 2 1 C1.835 1.78375 1.67 2.5675 1.5 3.375 C0.9376293 5.88208039 0.9376293 5.88208039 1 8 C-2.3 7.67 -5.6 7.34 -9 7 C-6.25604436 4.05278838 -3.61662784 1.80831392 0 0 Z " fill="#4D5063" transform="translate(207,272)"/>
<path d="M0 0 C1.98 0.66 3.96 1.32 6 2 C6 3.32 6 4.64 6 6 C3.69 6.33 1.38 6.66 -1 7 C-1.33 5.35 -1.66 3.7 -2 2 C-1.34 2 -0.68 2 0 2 C0 1.34 0 0.68 0 0 Z " fill="#EFE9E3" transform="translate(206,169)"/>
<path d="M0 0 C6.875 3.75 6.875 3.75 8 6 C6.1875 7.5625 6.1875 7.5625 4 9 C3.01 8.67 2.02 8.34 1 8 C1 6.35 1 4.7 1 3 C-0.32 3.33 -1.64 3.66 -3 4 C-2.01 2.68 -1.02 1.36 0 0 Z " fill="#454658" transform="translate(412,280)"/>
<path d="M0 0 C0.33 0 0.66 0 1 0 C1.33 3.3 1.66 6.6 2 10 C2.66 10 3.32 10 4 10 C4.08159574 14.16138263 3.98248524 17.9472484 3 22 C0.21017987 16.79233575 -0.11733107 12.67175531 -0.0625 6.75 C-0.05347656 5.48671875 -0.04445312 4.2234375 -0.03515625 2.921875 C-0.02355469 1.95765625 -0.01195312 0.9934375 0 0 Z " fill="#E8A985" transform="translate(203,178)"/>
<path d="M0 0 C2.25740223 2.44551908 2.97222725 3.76856041 3.375 7.125 C3.25125 8.07375 3.1275 9.0225 3 10 C2.01 10.66 1.02 11.32 0 12 C-1.125 10.5 -1.125 10.5 -2 8 C-1.57598348 5.2226918 -0.81108065 2.70360217 0 0 Z " fill="#434657" transform="translate(333,452)"/>
<path d="M0 0 C0.66 0.33 1.32 0.66 2 1 C1.835 1.639375 1.67 2.27875 1.5 2.9375 C0.84067485 6.97586652 0.91996221 10.91807258 1 15 C0.34 15 -0.32 15 -1 15 C-1.28875 14.38125 -1.5775 13.7625 -1.875 13.125 C-2.93720042 10.86674235 -2.93720042 10.86674235 -5 9 C-4.01 9 -3.02 9 -2 9 C-2 8.34 -2 7.68 -2 7 C-2.66 6.34 -3.32 5.68 -4 5 C-3.34 5 -2.68 5 -2 5 C-1.34 3.35 -0.68 1.7 0 0 Z " fill="#352119" transform="translate(309,182)"/>
<path d="M0 0 C3 0.3125 3 0.3125 6 1 C6.33 1.66 6.66 2.32 7 3 C7.99 3.66 8.98 4.32 10 5 C7.66666667 5 5.33333333 5 3 5 C1.66216607 5.31478446 0.32796291 5.64587656 -1 6 C-1.042721 4.33388095 -1.04063832 2.66617115 -1 1 C-0.67 0.67 -0.34 0.34 0 0 Z " fill="#2D3241" transform="translate(452,369)"/>
<path d="M0 0 C4.33333333 0 8.66666667 0 13 0 C13 0.66 13 1.32 13 2 C14.65 2 16.3 2 18 2 C18 2.33 18 2.66 18 3 C15.93757383 3.02717692 13.87504297 3.0464758 11.8125 3.0625 C10.66394531 3.07410156 9.51539063 3.08570313 8.33203125 3.09765625 C5.40699414 3.01192832 2.83683709 2.67849023 0 2 C0 1.34 0 0.68 0 0 Z " fill="#EA9B6C" transform="translate(291,354)"/>
<path d="M0 0 C-1.58962659 4.03520597 -3.28232318 8.01811282 -5 12 C-5.66 11.34 -6.32 10.68 -7 10 C-6.67 9.01 -6.34 8.02 -6 7 C-7.32 7.33 -8.64 7.66 -10 8 C-8.33333333 6.33333333 -6.66666667 4.66666667 -5 3 C-4.443125 2.401875 -3.88625 1.80375 -3.3125 1.1875 C-2 0 -2 0 0 0 Z " fill="#515365" transform="translate(194,282)"/>
<path d="M0 0 C0.33 0 0.66 0 1 0 C1.20413361 5.73842251 1.27141454 10.60539047 -1 16 C-0.01 16.33 0.98 16.66 2 17 C2.33 17.99 2.66 18.98 3 20 C1.02 19.34 -0.96 18.68 -3 18 C-2.01 12.06 -1.02 6.12 0 0 Z " fill="#FCE5D1" transform="translate(379,243)"/>
<path d="M0 0 C-1.4375 2.5 -1.4375 2.5 -4 5 C-7.04256578 5.4451258 -9.9465865 5.29359745 -13 5 C-12.67 4.01 -12.34 3.02 -12 2 C-9.78515625 1.015625 -9.78515625 1.015625 -7.0625 0.25 C-6.16660156 -0.01296875 -5.27070313 -0.2759375 -4.34765625 -0.546875 C-2 -1 -2 -1 0 0 Z " fill="#E6E5E0" transform="translate(400,167)"/>
<path d="M0 0 C0.66 0 1.32 0 2 0 C2.33 1.32 2.66 2.64 3 4 C2.01 4.495 2.01 4.495 1 5 C1 5.66 1 6.32 1 7 C1 10 1 10 0 12 C-1.32 12 -2.64 12 -4 12 C-3.71640113 10.5608866 -3.42278601 9.12374482 -3.125 7.6875 C-2.96257812 6.88699219 -2.80015625 6.08648437 -2.6328125 5.26171875 C-2 3 -2 3 0 0 Z " fill="#3A3E53" transform="translate(373,268)"/>
<path d="M0 0 C0.33 1.98 0.66 3.96 1 6 C0.34 6 -0.32 6 -1 6 C-1.28875 6.78375 -1.5775 7.5675 -1.875 8.375 C-3 11 -3 11 -5 13 C-4.91306859 11.20741442 -4.80489496 9.41584856 -4.6875 7.625 C-4.60048828 6.12839844 -4.60048828 6.12839844 -4.51171875 4.6015625 C-4.34285156 3.74304688 -4.17398437 2.88453125 -4 2 C-1 0 -1 0 0 0 Z " fill="#E18E62" transform="translate(376,256)"/>
<path d="M0 0 C2.75 0.8125 2.75 0.8125 5 2 C3.35 3.98 1.7 5.96 0 8 C-0.99 7.67 -1.98 7.34 -3 7 C-3 5 -3 5 -2 4 C-2.66 3.67 -3.32 3.34 -4 3 C-2.3125 1.375 -2.3125 1.375 0 0 Z " fill="#353A47" transform="translate(429,144)"/>
<path d="M0 0 C2.74277578 3.19990508 4.6302836 6.00499382 6 10 C5.01 10.33 4.02 10.66 3 11 C2.896875 10.360625 2.79375 9.72125 2.6875 9.0625 C2.460625 8.381875 2.23375 7.70125 2 7 C1.01 6.67 0.02 6.34 -1 6 C-0.67 4.02 -0.34 2.04 0 0 Z " fill="#313340" transform="translate(315,373)"/>
<path d="M0 0 C1.32 0.99 2.64 1.98 4 3 C3.34 6.96 2.68 10.92 2 15 C1.67 15 1.34 15 1 15 C-0.03590199 9.94997778 -0.10251672 5.12583611 0 0 Z " fill="#B3ADA8" transform="translate(250,339)"/>
<path d="M0 0 C0.33 0 0.66 0 1 0 C1.125 2.375 1.125 2.375 1 5 C-1 7 -1 7 -2.9453125 7.1953125 C-4.96354167 7.13020833 -6.98177083 7.06510417 -9 7 C-9.33 8.32 -9.66 9.64 -10 11 C-10 9.02 -10 7.04 -10 5 C-8.72125 4.9175 -7.4425 4.835 -6.125 4.75 C-3.94666582 4.54130069 -3.94666582 4.54130069 -2 4 C-0.4100567 2.07935207 -0.4100567 2.07935207 0 0 Z " fill="#FBE9DA" transform="translate(390,232)"/>
<path d="M0 0 C0.66 0.99 1.32 1.98 2 3 C0.576875 4.0828125 0.576875 4.0828125 -0.875 5.1875 C-3.67412562 7.49809898 -4.98517558 9.44811452 -6 13 C-7.32 12.67 -8.64 12.34 -10 12 C-6.7 8.04 -3.4 4.08 0 0 Z " fill="#E7E8EA" transform="translate(428,332)"/>
<path d="M0 0 C1.485 0.99 1.485 0.99 3 2 C3.99 2 4.98 2 6 2 C4.68 4.31 3.36 6.62 2 9 C1.67 8.34 1.34 7.68 1 7 C0.34 7 -0.32 7 -1 7 C-0.67 4.69 -0.34 2.38 0 0 Z " fill="#444558" transform="translate(436,312)"/>
<path d="M0 0 C4.43651689 -0.39145737 7.25241255 0.61517162 11 3 C11.875 5.1875 11.875 5.1875 12 7 C7.39104317 5.68315519 3.85859765 3.84801255 0 1 C0 0.67 0 0.34 0 0 Z " fill="#464B55" transform="translate(170,153)"/>
<path d="M0 0 C0.33 0.99 0.66 1.98 1 3 C0.01 4.485 0.01 4.485 -1 6 C-1 5.34 -1 4.68 -1 4 C-1.66 4 -2.32 4 -3 4 C-3 4.66 -3 5.32 -3 6 C-4.65 6 -6.3 6 -8 6 C-4.76923077 0 -4.76923077 0 0 0 Z " fill="#3F4651" transform="translate(239,41)"/>
<path d="M0 0 C1.56393356 3.97376829 0.36145292 6.81377903 -0.9375 10.75 C-1.31777344 11.92046875 -1.69804687 13.0909375 -2.08984375 14.296875 C-2.39019531 15.18890625 -2.69054687 16.0809375 -3 17 C-3.33 17 -3.66 17 -4 17 C-4.26479098 11.83657587 -3.59280546 6.91606623 -2 2 C-1.34 1.34 -0.68 0.68 0 0 Z " fill="#B8B8B9" transform="translate(284,429)"/>
<path d="M0 0 C0.66 0 1.32 0 2 0 C2.92844389 4.33273814 2.92844389 7.66726186 2 12 C-0.12055529 8.46574118 -0.61577388 5.07279689 -1 1 C-0.67 0.67 -0.34 0.34 0 0 Z " fill="#B2B1B2" transform="translate(269,430)"/>
<path d="M0 0 C2.97 1.65 5.94 3.3 9 5 C9 5.99 9 6.98 9 8 C8.236875 7.67 7.47375 7.34 6.6875 7 C4.00930865 5.82563314 4.00930865 5.82563314 1 6 C0.67 4.02 0.34 2.04 0 0 Z " fill="#484A5B" transform="translate(400,272)"/>
<path d="M0 0 C1.81325551 0.11351517 3.62563357 0.24112961 5.4375 0.375 C6.95150391 0.47941406 6.95150391 0.47941406 8.49609375 0.5859375 C9.73552734 0.79089844 9.73552734 0.79089844 11 1 C11.33 1.66 11.66 2.32 12 3 C9.36 2.67 6.72 2.34 4 2 C4 2.99 4 3.98 4 5 C3.01 5.33 2.02 5.66 1 6 C0.67 4.02 0.34 2.04 0 0 Z " fill="#4C1611" transform="translate(212,171)"/>
<path d="M0 0 C1.88391785 3.26545761 2.49287967 6.28111761 3 10 C1.35 10 -0.3 10 -2 10 C-2.17942163 6.05272412 -2.09350689 3.4019487 0 0 Z " fill="#484A5C" transform="translate(274,456)"/>
<path d="M0 0 C0.99 0 1.98 0 3 0 C4.23076923 5.41538462 4.23076923 5.41538462 3.0625 8.375 C2.711875 8.91125 2.36125 9.4475 2 10 C1.34 10 0.68 10 0 10 C0 6.7 0 3.4 0 0 Z " fill="#47495D" transform="translate(248,352)"/>
<path d="M0 0 C0.66 0 1.32 0 2 0 C2 0.66 2 1.32 2 2 C3.32 2.33 4.64 2.66 6 3 C2.14243493 5.15305957 -0.55129785 6.39253254 -5 6 C-3.625 4 -3.625 4 -2 2 C-1.34 2 -0.68 2 0 2 C0 1.34 0 0.68 0 0 Z " fill="#E0946B" transform="translate(336,346)"/>
<path d="M0 0 C1.9375 0.375 1.9375 0.375 4 1 C4.33 1.66 4.66 2.32 5 3 C5.99 3 6.98 3 8 3 C8 3.66 8 4.32 8 5 C8.99 5 9.98 5 11 5 C11 5.66 11 6.32 11 7 C9.234375 7.7109375 9.234375 7.7109375 7 8 C5.078125 6.6015625 5.078125 6.6015625 3.25 4.625 C2.63640625 3.97789062 2.0228125 3.33078125 1.390625 2.6640625 C0 1 0 1 0 0 Z " fill="#2F2319" transform="translate(315,206)"/>
<path d="M0 0 C0 0.99 0 1.98 0 3 C-1.65 3.33 -3.3 3.66 -5 4 C-5 4.66 -5 5.32 -5 6 C-6.65 5.67 -8.3 5.34 -10 5 C-10 4.34 -10 3.68 -10 3 C-8.70990357 2.49596232 -7.41786211 1.99690074 -6.125 1.5 C-5.04605469 1.08234375 -5.04605469 1.08234375 -3.9453125 0.65625 C-2 0 -2 0 0 0 Z " fill="#414551" transform="translate(133,378)"/>
<path d="M0 0 C0.33 0.66 0.66 1.32 1 2 C1.99 2.33 2.98 2.66 4 3 C3.01 3.495 3.01 3.495 2 4 C1.835 4.99 1.67 5.98 1.5 7 C1.335 7.99 1.17 8.98 1 10 C0.01 10.495 0.01 10.495 -1 11 C-2.0257259 6.58937864 -2.03684712 4.07369424 0 0 Z " fill="#DA8352" transform="translate(382,181)"/>
<path d="M0 0 C1.98 0 3.96 0 6 0 C6.33 1.32 6.66 2.64 7 4 C5.02 4.33 3.04 4.66 1 5 C0.67 3.35 0.34 1.7 0 0 Z " fill="#F09761" transform="translate(292,181)"/>
<path d="M0 0 C1.31896465 0.92838287 2.62998689 1.86805732 3.9375 2.8125 C4.66839844 3.33457031 5.39929688 3.85664062 6.15234375 4.39453125 C8 6 8 6 9 9 C8.34 9 7.68 9 7 9 C6.67 8.34 6.34 7.68 6 7 C5.01 6.67 4.02 6.34 3 6 C2.01 5.67 1.02 5.34 0 5 C-0.33 4.34 -0.66 3.68 -1 3 C-0.67 2.01 -0.34 1.02 0 0 Z " fill="#3E424E" transform="translate(348,30)"/>
<path d="M0 0 C1.65 0 3.3 0 5 0 C4.46930939 3.82097239 3.50298434 6.06171403 1 9 C0.45627049 5.94152152 0 3.11227195 0 0 Z " fill="#454559" transform="translate(187,336)"/>
<path d="M0 0 C1.98 0.66 3.96 1.32 6 2 C4.37660195 3.70884005 2.70680947 5.37446717 1 7 C0.34 7 -0.32 7 -1 7 C-2 4 -2 4 -1.0625 1.8125 C-0.5365625 0.9153125 -0.5365625 0.9153125 0 0 Z " fill="#474A5B" transform="translate(386,265)"/>
<path d="M0 0 C0.33 0 0.66 0 1 0 C1.33 3.63 1.66 7.26 2 11 C0.02 11.99 0.02 11.99 -2 13 C-2 11.68 -2 10.36 -2 9 C-1.34 9 -0.68 9 0 9 C0 6.03 0 3.06 0 0 Z " fill="#FAF1E5" transform="translate(226,251)"/>
<path d="M0 0 C3.3 0.33 6.6 0.66 10 1 C7.50494038 3.49505962 6.32671112 3.35948376 2.875 3.625 C1.96492188 3.69976562 1.05484375 3.77453125 0.1171875 3.8515625 C-0.93082031 3.92503906 -0.93082031 3.92503906 -2 4 C-1.34 2.68 -0.68 1.36 0 0 Z " fill="#070105" transform="translate(294,187)"/>
<path d="M0 0 C0.33 0 0.66 0 1 0 C2.32854177 5.9180497 1.66464729 8.77729131 -1 14 C-2.13732426 10.59598052 -1.83989957 8.22543336 -1.0625 4.75 C-0.86785156 3.85796875 -0.67320312 2.9659375 -0.47265625 2.046875 C-0.31667969 1.37140625 -0.16070312 0.6959375 0 0 Z " fill="#4A4B59" transform="translate(349,382)"/>
<path d="M0 0 C0 3.3 0 6.6 0 10 C-0.99 9.34 -1.98 8.68 -3 8 C-3.66 7.67 -4.32 7.34 -5 7 C-4.53479806 4.30182875 -3.4249099 0 0 0 Z " fill="#464759" transform="translate(253,360)"/>
<path d="M0 0 C1.0625 1.8125 1.0625 1.8125 2 4 C1.67 4.99 1.34 5.98 1 7 C-1.5625 8.1875 -1.5625 8.1875 -4 9 C-2.94124926 5.59687262 -1.99097846 2.98646769 0 0 Z " fill="#E88756" transform="translate(374,208)"/>
<path d="M0 0 C1.32 0.33 2.64 0.66 4 1 C3.3125 3.4375 3.3125 3.4375 2 6 C-0.625 6.8125 -0.625 6.8125 -3 7 C-1.125 2.25 -1.125 2.25 0 0 Z " fill="#464956" transform="translate(218,65)"/>
<path d="M0 0 C0.33 0 0.66 0 1 0 C1.144375 0.763125 1.28875 1.52625 1.4375 2.3125 C1.9632594 5.08172908 1.9632594 5.08172908 3 8 C2.34 8.66 1.68 9.32 1 10 C0.60235737 11.98821313 0.26224651 13.98944339 0 16 C-0.33 16 -0.66 16 -1 16 C-0.67 10.72 -0.34 5.44 0 0 Z " fill="#52545F" transform="translate(50,544)"/>
<path d="M0 0 C0.66 0.66 1.32 1.32 2 2 C1.9765625 4.1640625 1.9765625 4.1640625 1.625 6.625 C1.51414062 7.44226563 1.40328125 8.25953125 1.2890625 9.1015625 C1.19367188 9.72804688 1.09828125 10.35453125 1 11 C-0.9451 8.08235 -1.45276317 6.37462715 -2 3 C-1.34 3 -0.68 3 0 3 C0 2.01 0 1.02 0 0 Z " fill="#97989A" transform="translate(278,458)"/>
<path d="M0 0 C1.65 1.32 3.3 2.64 5 4 C4.34 5.32 3.68 6.64 3 8 C2.01 7.67 1.02 7.34 0 7 C0 4.69 0 2.38 0 0 Z " fill="#4E5161" transform="translate(432,296)"/>
<path d="M0 0 C-0.33 0.66 -0.66 1.32 -1 2 C-4.3 2 -7.6 2 -11 2 C-11 1.34 -11 0.68 -11 0 C-6.94952424 -1.35015859 -4.2079832 -0.62084998 0 0 Z " fill="#2F2C30" transform="translate(251,217)"/>
<path d="M0 0 C0.66 0.33 1.32 0.66 2 1 C2 3.64 2 6.28 2 9 C0.68 8.34 -0.64 7.68 -2 7 C-1.34 4.69 -0.68 2.38 0 0 Z " fill="#DB8059" transform="translate(386,172)"/>
<path d="M0 0 C2.64 0 5.28 0 8 0 C7.34 1.65 6.68 3.3 6 5 C5.01 5 4.02 5 3 5 C3 4.01 3 3.02 3 2 C2.01 1.34 1.02 0.68 0 0 Z " fill="#D5CFC9" transform="translate(296,358)"/>
<path d="M0 0 C0.99 0.33 1.98 0.66 3 1 C3.33 3.31 3.66 5.62 4 8 C3.01 8 2.02 8 1 8 C0.814375 7.071875 0.814375 7.071875 0.625 6.125 C0.12802644 3.80879168 0.12802644 3.80879168 -2 2 C-1.34 1.34 -0.68 0.68 0 0 Z " fill="#3C4058" transform="translate(227,264)"/>
<path d="M0 0 C0.66 0 1.32 0 2 0 C2 0.66 2 1.32 2 2 C2.99 1.67 3.98 1.34 5 1 C5 2.65 5 4.3 5 6 C3.35 5.67 1.7 5.34 0 5 C-0.5625 3.0625 -0.5625 3.0625 -1 1 C-0.67 0.67 -0.34 0.34 0 0 Z " fill="#191613" transform="translate(315,201)"/>
<path d="M0 0 C1.98 0.66 3.96 1.32 6 2 C5.34 3.65 4.68 5.3 4 7 C2.68 6.67 1.36 6.34 0 6 C0 4.02 0 2.04 0 0 Z " fill="#343A48" transform="translate(424,119)"/>
<path d="M0 0 C0.99 0 1.98 0 3 0 C3.66 0.66 4.32 1.32 5 2 C4.0022242 4.99332739 3.2477975 5.94766315 1 8 C-0.35439668 5.29120665 -0.06501451 2.99066732 0 0 Z " fill="#3D4050" transform="translate(339,429)"/>
<path d="M0 0 C0.66 0.33 1.32 0.66 2 1 C2 1.66 2 2.32 2 3 C1.34 3 0.68 3 0 3 C-0.66 5.31 -1.32 7.62 -2 10 C-2.33 10 -2.66 10 -3 10 C-3.36923077 4.58461538 -3.36923077 4.58461538 -1.5 1.625 C-1.005 1.08875 -0.51 0.5525 0 0 Z " fill="#50545F" transform="translate(67,402)"/>
<path d="M0 0 C1.74627478 2.61941217 2.38722388 4.03824877 3 7 C3.66 7 4.32 7 5 7 C5.33 8.32 5.66 9.64 6 11 C5.01 11 4.02 11 3 11 C0.84694043 7.14243493 -0.39253254 4.44870215 0 0 Z " fill="#5C4D52" transform="translate(230,265)"/>
<path d="M0 0 C2.31 0 4.62 0 7 0 C7 0.66 7 1.32 7 2 C7.66 2.33 8.32 2.66 9 3 C6.03 3 3.06 3 0 3 C0 2.01 0 1.02 0 0 Z " fill="#322C26" transform="translate(333,216)"/>
<path d="M0 0 C0.99 0.33 1.98 0.66 3 1 C2.34 3.64 1.68 6.28 1 9 C0.01 8.01 -0.98 7.02 -2 6 C-1.34 4.02 -0.68 2.04 0 0 Z " fill="#2E292D" transform="translate(223,179)"/>
<path d="M0 0 C1.18851562 0.10183594 2.37703125 0.20367187 3.6015625 0.30859375 C4.51679688 0.39238281 5.43203125 0.47617188 6.375 0.5625 C6.375 0.8925 6.375 1.2225 6.375 1.5625 C5.60414063 1.62308594 4.83328125 1.68367187 4.0390625 1.74609375 C3.03617187 1.82988281 2.03328125 1.91367188 1 2 C-0.49660156 2.12181641 -0.49660156 2.12181641 -2.0234375 2.24609375 C-4.60427613 2.41215626 -4.60427613 2.41215626 -6.625 3.5625 C-7.285 3.2325 -7.945 2.9025 -8.625 2.5625 C-8.625 1.9025 -8.625 1.2425 -8.625 0.5625 C-5.68113377 -0.90943312 -3.25109964 -0.28686173 0 0 Z " fill="#2F2F35" transform="translate(318.625,178.4375)"/>
<path d="M0 0 C0.99 0 1.98 0 3 0 C3 2.97 3 5.94 3 9 C2.34 8.67 1.68 8.34 1 8 C0.40644386 5.35139573 0.25790731 2.70802678 0 0 Z " fill="#2C313E" transform="translate(545,412)"/>
<path d="M0 0 C0.66 0 1.32 0 2 0 C2 2.31 2 4.62 2 7 C0.02 7.99 0.02 7.99 -2 9 C-1.34 6.03 -0.68 3.06 0 0 Z " fill="#BBBBB9" transform="translate(348,371)"/>
<path d="M0 0 C3.875 4.75 3.875 4.75 5 7 C4.01 7.33 3.02 7.66 2 8 C1.67 7.01 1.34 6.02 1 5 C0.01 5.495 0.01 5.495 -1 6 C-1.33 5.01 -1.66 4.02 -2 3 C-1.34 2.01 -0.68 1.02 0 0 Z " fill="#4B454E" transform="translate(240,282)"/>
<path d="M0 0 C0.66 0 1.32 0 2 0 C2.21278058 4.46839215 1.59138085 7.82262526 0 12 C-0.33 12 -0.66 12 -1 12 C-1.02712066 10.56260487 -1.04645067 9.12506137 -1.0625 7.6875 C-1.07410156 6.88699219 -1.08570313 6.08648437 -1.09765625 5.26171875 C-1 3 -1 3 0 0 Z " fill="#F99866" transform="translate(378,232)"/>
<path d="M0 0 C0 0.66 0 1.32 0 2 C-2.31 2.66 -4.62 3.32 -7 4 C-7.33 2.68 -7.66 1.36 -8 0 C-4.71023192 -1.09658936 -3.28696233 -0.79953138 0 0 Z " fill="#4D3E3E" transform="translate(231,172)"/>
<path d="M0 0 C0.99 1.32 1.98 2.64 3 4 C1 6 1 6 -1.625 6.125 C-2.40875 6.08375 -3.1925 6.0425 -4 6 C-2.68 4.02 -1.36 2.04 0 0 Z " fill="#454A54" transform="translate(228,50)"/>
<path d="M0 0 C2.88575819 0.39803561 3.82189513 0.79009069 5.75 3.0625 C6.1625 3.701875 6.575 4.34125 7 5 C5.02 5 3.04 5 1 5 C0.67 3.35 0.34 1.7 0 0 Z " fill="#353A47" transform="translate(355,39)"/>
<path d="M0 0 C-0.7109375 1.953125 -0.7109375 1.953125 -2 4 C-4.1640625 4.609375 -4.1640625 4.609375 -6.625 4.75 C-7.44226563 4.80671875 -8.25953125 4.8634375 -9.1015625 4.921875 C-9.72804688 4.94765625 -10.35453125 4.9734375 -11 5 C-3.5 0 -3.5 0 0 0 Z " fill="#535966" transform="translate(316,31)"/>
<path d="M0 0 C2 3 2 3 2 7 C0 8.75 0 8.75 -2 10 C-1.54177532 6.53058454 -1.10868317 3.32604951 0 0 Z " fill="#454755" transform="translate(354,357)"/>
<path d="M0 0 C2.3125 1.3125 2.3125 1.3125 3.3125 4.3125 C0.0125 3.3225 -3.2875 2.3325 -6.6875 1.3125 C-2.6875 -0.6875 -2.6875 -0.6875 0 0 Z " fill="#495059" transform="translate(195.6875,162.6875)"/>
<path d="M0 0 C2 2 2 2 2.125 4.625 C2.08375 5.40875 2.0425 6.1925 2 7 C1.01 7.495 1.01 7.495 0 8 C-0.66 7.67 -1.32 7.34 -2 7 C-1.67 6.01 -1.34 5.02 -1 4 C-1.66 3.34 -2.32 2.68 -3 2 C-2.01 1.34 -1.02 0.68 0 0 Z " fill="#39414D" transform="translate(254,24)"/>
<path d="M0 0 C0.66 0.33 1.32 0.66 2 1 C2 3.64 2 6.28 2 9 C1.01 8.67 0.02 8.34 -1 8 C-0.67 5.36 -0.34 2.72 0 0 Z " fill="#2B313F" transform="translate(565,599)"/>
<path d="M0 0 C0.66 0.33 1.32 0.66 2 1 C2 3.31 2 5.62 2 8 C1.01 8.495 1.01 8.495 0 9 C-1.125 2.25 -1.125 2.25 0 0 Z " fill="#B5B5B6" transform="translate(263,404)"/>
<path d="M0 0 C0.66 0.33 1.32 0.66 2 1 C-0.1875 3.0625 -0.1875 3.0625 -3 5 C-5.8125 4.75 -5.8125 4.75 -8 4 C-5.31143836 2.20762558 -3.0466145 1.01553817 0 0 Z " fill="#4F545E" transform="translate(115,384)"/>
<path d="M0 0 C0.6875 1.75 0.6875 1.75 1 4 C-0.4375 6.25 -0.4375 6.25 -2 8 C-2.66 6.02 -3.32 4.04 -4 2 C-3.01 2 -2.02 2 -1 2 C-0.67 1.34 -0.34 0.68 0 0 Z " fill="#C8CAC8" transform="translate(326,382)"/>
<path d="M0 0 C0.66 1.32 1.32 2.64 2 4 C1.01 5.32 0.02 6.64 -1 8 C-1.66 7.67 -2.32 7.34 -3 7 C-2.25 2.25 -2.25 2.25 0 0 Z " fill="#4C4F60" transform="translate(181,292)"/>
<path d="M0 0 C2 3 2 3 1.75 6.125 C1.5025 7.07375 1.255 8.0225 1 9 C0.01 9.495 0.01 9.495 -1 10 C-1.33 8.68 -1.66 7.36 -2 6 C-1.34 6 -0.68 6 0 6 C0 4.02 0 2.04 0 0 Z " fill="#2E303E" transform="translate(556,505)"/>
<path d="M0 0 C3.7 3.7 3.7 3.7 4 7 C3.34 8.32 2.68 9.64 2 11 C1.34 7.37 0.68 3.74 0 0 Z " fill="#8E8F8F" transform="translate(328,453)"/>
<path d="M0 0 C0.66 0 1.32 0 2 0 C1.37240135 2.92879371 0.41377341 5.36095629 -1 8 C-1.66 8 -2.32 8 -3 8 C-3 6.68 -3 5.36 -3 4 C-2.34 4 -1.68 4 -1 4 C-0.67 2.68 -0.34 1.36 0 0 Z " fill="#454556" transform="translate(338,440)"/>
<path d="M0 0 C3.3 0.99 6.6 1.98 10 3 C5.99998285 4.00000429 3.94476647 3.80688405 0 3 C0 2.01 0 1.02 0 0 Z " fill="#3D424C" transform="translate(481,379)"/>
<path d="M0 0 C2 1.8125 2 1.8125 4 4 C4 4.99 4 5.98 4 7 C4.66 7.33 5.32 7.66 6 8 C3 8 3 8 1.3125 6.8125 C-0.40364695 4.44258278 -0.23187108 2.85974334 0 0 Z " fill="#555767" transform="translate(182,333)"/>
<path d="M0 0 C0.99 0 1.98 0 3 0 C3 0.66 3 1.32 3 2 C5.97 2 8.94 2 12 2 C12 2.33 12 2.66 12 3 C8.04 3 4.08 3 0 3 C0 2.01 0 1.02 0 0 Z " fill="#342822" transform="translate(348,216)"/>
<path d="M0 0 C0.66 0 1.32 0 2 0 C1.34 4.29 0.68 8.58 0 13 C-0.33 13 -0.66 13 -1 13 C-1.02686553 11.02090602 -1.04633375 9.04171029 -1.0625 7.0625 C-1.07410156 5.96035156 -1.08570313 4.85820312 -1.09765625 3.72265625 C-1 1 -1 1 0 0 Z " fill="#FDF4EB" transform="translate(203,174)"/>
<path d="M0 0 C0.1875 2.875 0.1875 2.875 0 6 C-0.99 6.66 -1.98 7.32 -3 8 C-3.33 6.02 -3.66 4.04 -4 2 C-1 0 -1 0 0 0 Z " fill="#222533" transform="translate(324,434)"/>
<path d="M0 0 C3.375 0.3125 3.375 0.3125 7 1 C7.66 1.99 8.32 2.98 9 4 C3.46153846 3.38461538 3.46153846 3.38461538 1.125 1.4375 C0.75375 0.963125 0.3825 0.48875 0 0 Z " fill="#E1B295" transform="translate(261,348)"/>
<path d="M0 0 C2.475 0.495 2.475 0.495 5 1 C3.68 2.65 2.36 4.3 1 6 C0.4465236 3.92446352 0 2.15634036 0 0 Z " fill="#434758" transform="translate(432,320)"/>
<path d="M0 0 C2.88437779 1.29299694 4.87219421 2.65941363 7 5 C4.69 4.67 2.38 4.34 0 4 C0 2.68 0 1.36 0 0 Z " fill="#4B4D5F" transform="translate(425,291)"/>
<path d="M0 0 C0.99 0.66 1.98 1.32 3 2 C3.1875 4.625 3.1875 4.625 3 7 C2.67 6.34 2.34 5.68 2 5 C1.34 5 0.68 5 0 5 C-0.66 3.68 -1.32 2.36 -2 1 C-1.34 0.67 -0.68 0.34 0 0 Z " fill="#E0A076" transform="translate(245,285)"/>
<path d="M0 0 C1.9375 0.8125 1.9375 0.8125 4 2 C4.33 2.99 4.66 3.98 5 5 C3.02 4.34 1.04 3.68 -1 3 C-0.67 2.01 -0.34 1.02 0 0 Z " fill="#EFECEA" transform="translate(377,258)"/>
<path d="M0 0 C2.01920337 1.30406884 4.01924973 2.63823419 6 4 C6 4.33 6 4.66 6 5 C4.02 5 2.04 5 0 5 C-0.33 4.34 -0.66 3.68 -1 3 C-0.67 2.01 -0.34 1.02 0 0 Z " fill="#E48959" transform="translate(318,210)"/>
<path d="M0 0 C-0.33 1.65 -0.66 3.3 -1 5 C-1.66 4.67 -2.32 4.34 -3 4 C-3 3.34 -3 2.68 -3 2 C-3.66 1.67 -4.32 1.34 -5 1 C-2 0 -2 0 0 0 Z M-6 5 C-4 6 -4 6 -4 6 Z " fill="#444A56" transform="translate(175,118)"/>
</svg>
